0
SECTION
2
HEADER
9
$INSUNITS
70
4
9
$ACADVER
1
AC1014
9
$HANDSEED
5
FFFF
0
ENDSEC
0
SECTION
2
TABLES
0
TABLE
2
VPORT
5
8
100
AcDbSymbolTable
0
ENDTAB
0
TABLE
2
LTYPE
5
5
100
AcDbSymbolTable
0
LTYPE
5
14
100
AcDbSymbolTableRecord
100
AcDbLinetypeTableRecord
2
BYBLOCK
70
0
0
LTYPE
5
15
100
AcDbSymbolTableRecord
100
AcDbLinetypeTableRecord
2
BYLAYER
70
0
0
ENDTAB
0
TABLE
2
LAYER
5
2
100
AcDbSymbolTable
70
2
0
LAYER
5
50
100
AcDbSymbolTableRecord
100
AcDbLayerTableRecord
2
0
70
0
6
CONTINUOUS
0
ENDTAB
0
TABLE
2
STYLE
5
3
100
AcDbSymbolTable
70
1
0
STYLE
5
11
100
AcDbSymbolTableRecord
100
AcDbTextStyleTableRecord
2
STANDARD
70
0
0
ENDTAB
0
TABLE
2
VIEW
5
6
100
AcDbSymbolTable
70
0
0
ENDTAB
0
TABLE
2
UCS
5
7
100
AcDbSymbolTable
70
0
0
ENDTAB
0
TABLE
2
APPID
5
9
100
AcDbSymbolTable
70
2
0
APPID
5
12
100
AcDbSymbolTableRecord
100
AcDbRegAppTableRecord
2
ACAD
70
0
0
ENDTAB
0
TABLE
2
DIMSTYLE
5
A
100
AcDbSymbolTable
70
1
0
ENDTAB
0
TABLE
2
BLOCK_RECORD
5
1
100
AcDbSymbolTable
70
1
0
BLOCK_RECORD
5
1F
100
AcDbSymbolTableRecord
100
AcDbBlockTableRecord
2
*MODEL_SPACE
0
BLOCK_RECORD
5
1B
100
AcDbSymbolTableRecord
100
AcDbBlockTableRecord
2
*PAPER_SPACE
0
ENDTAB
0
ENDSEC
0
SECTION
2
BLOCKS
0
BLOCK
5
20
100
AcDbEntity
100
AcDbBlockBegin
2
*MODEL_SPACE
0
ENDBLK
5
21
100
AcDbEntity
100
AcDbBlockEnd
0
BLOCK
5
1C
100
AcDbEntity
100
AcDbBlockBegin
2
*PAPER_SPACE
0
ENDBLK
5
1D
100
AcDbEntity
100
AcDbBlockEnd
0
ENDSEC
0
SECTION
2
ENTITIES
0
CIRCLE
5
100
100
AcDbEntity
8
0
100
AcDbCircle
10
-86.324844190934442
20
-3.2338147808303574
30
0
40
2
210
0
220
-0
230
1
0
CIRCLE
5
101
100
AcDbEntity
8
0
100
AcDbCircle
10
-13.675155809065558
20
-3.2338147808303574
30
0
40
2
210
0
220
-0
230
1
0
CIRCLE
5
102
100
AcDbEntity
8
0
100
AcDbCircle
10
-79.975481095404405
20
-71.850683562679365
30
0
40
2
210
0
220
-0
230
1
0
CIRCLE
5
103
100
AcDbEntity
8
0
100
AcDbCircle
10
-20.024518904595592
20
-71.850683562679365
30
0
40
2
210
0
220
-0
230
1
0
LWPOLYLINE
5
104
100
AcDbEntity
8
0
100
AcDbPolyline
90
4
70
1
43
0.0
10
-37.263678013255998
20
-111.90085113347325
10
-28.570365821709135
20
-109.5714041556808
10
-27.534933089484809
20
-113.43506550950549
10
-36.228171135590365
20
-115.76478915701023
0
LWPOLYLINE
5
105
100
AcDbEntity
8
0
100
AcDbPolyline
90
4
70
1
43
0.0
10
-20.760159105962494
20
-107.41926879009262
10
-25.668751219200175
20
-112.32750533526996
10
-28.497279793898901
20
-109.49939681678939
10
-23.588470110391107
20
-104.59075289393788
0
LWPOLYLINE
5
106
100
AcDbEntity
8
0
100
AcDbPolyline
90
5
70
1
43
0.0
10
-10.071964517651303
20
-85.197357819316835
10
-7.0687493209360053
20
-73.988680784072329
10
-3.2050338855196649
20
-75.023911692674631
10
-5.6907026825544982
20
-84.300988737643138
10
-9.5542201986369317
20
-83.265534633792768
0
LWPOLYLINE
5
107
100
AcDbEntity
8
0
100
AcDbPolyline
90
4
70
1
43
0.0
10
-98.000000089406768
20
-50.532510314674902
10
-98.000000089406782
20
-46.607752987300238
10
-94.000000029802138
20
-46.607752987300202
10
-94.000000029802123
20
-50.532510314674902
0
LWPOLYLINE
5
108
100
AcDbEntity
8
0
100
AcDbPolyline
90
4
70
1
43
0.0
10
-94.000000029802237
20
9.5000001415610296
10
-94.000000029802237
20
5.3943890091199274
10
-98.000000089406882
20
5.3943890091199176
10
-98.000000089406882
20
9.5000001415610225
0
LWPOLYLINE
5
109
100
AcDbEntity
8
0
100
AcDbPolyline
90
4
70
1
43
0.0
10
-93.007631453070985
20
-73.931134112768078
10
-90.521890101589435
20
-83.208047775724282
10
-94.385593160676606
20
-84.243323818247916
10
-96.871334740478119
20
-74.966410216469868
0
LWPOLYLINE
5
110
100
AcDbEntity
8
0
100
AcDbPolyline
90
4
70
1
43
0.0
10
-74.349694334292622
20
-112.32776369977151
10
-79.258206990017598
20
-107.41925104404585
10
-76.429779865271229
20
-104.59082391929985
10
-71.521267209546238
20
-109.49933657502552
0
LWPOLYLINE
5
111
100
AcDbEntity
8
0
100
AcDbPolyline
90
4
70
1
43
0.0
10
-71.419280713184975
20
-109.58627528225094
10
-62.725948276583424
20
-111.91564668817385
10
-63.761224456993631
20
-115.7793499933301
10
-72.454556893595139
20
-113.44997858740719
0
LWPOLYLINE
5
112
100
AcDbEntity
8
0
100
AcDbPolyline
90
4
70
1
43
0.0
10
-6.0000000894069565
20
-50.530632491511469
10
-6.0000000894069574
20
-46.607963906236691
10
-2.0000000298023126
20
-46.607963906236691
10
-1.9999880659778626
20
-50.530632491520763
0
LWPOLYLINE
5
113
100
AcDbEntity
8
0
100
AcDbPolyline
90
4
70
1
43
0.0
10
-6.0000000894069681
20
5.3999998793005934
10
-6.0000000894069689
20
9.5000001415610296
10
-2.0000000298023246
20
9.5000001415610313
10
-1.9999999552965178
20
5.3999998793005943
0
LWPOLYLINE
5
114
100
AcDbEntity
8
0
100
AcDbPolyline
90
4
70
1
43
0.0
10
-64.000000953674316
20
9.5000001415610171
10
-64.000000953674316
20
5.5000000819563724
10
-89.000001400709152
20
5.500000081956367
10
-89.000001400709152
20
9.500000081956367
0
LWPOLYLINE
5
115
100
AcDbEntity
8
0
100
AcDbPolyline
90
4
70
1
43
0.0
10
-36.000000536441803
20
9.5000001415610242
10
-11.000000089406967
20
9.5000001415610296
10
-11.000000089406967
20
5.5000000819563848
10
-36.000000536441803
20
5.5000001415610233
0
LWPOLYLINE
5
116
100
AcDbEntity
8
0
100
AcDbPolyline
90
4
70
1
43
0.0
10
-73.000001087784767
20
-31.000000461935997
10
-69.000001028180122
20
-31.000000461935997
10
-69.000001028180122
20
-45.000000566244125
10
-73.000001087784767
20
-45.000000566244125
0
LWPOLYLINE
5
117
100
AcDbEntity
8
0
100
AcDbPolyline
90
4
70
1
43
0.0
10
-27.000000402331352
20
-31.000000566244125
10
-27.000000402331352
20
-45.000000566244125
10
-31.000000461935997
20
-45.000000566244125
10
-31.000000461935997
20
-31.000000566244125
0
LWPOLYLINE
5
118
100
AcDbEntity
8
0
100
AcDbPolyline
90
4
70
1
43
0.0
10
-91.700001087784784
20
-31.000000461935997
10
-91.700001087784784
20
-45.000000670552254
10
-95.700001087784784
20
-45.000000670552254
10
-95.700001087784784
20
-31.000000461935997
0
LWPOLYLINE
5
119
100
AcDbEntity
8
0
100
AcDbPolyline
90
4
70
1
43
0.0
10
-8.3000004023313512
20
-31.000000461935997
10
-4.3000004023313512
20
-31.000000461935997
10
-4.3000004023313512
20
-45.000000566244125
10
-8.3000004023313512
20
-45.000000566244125
0
CIRCLE
5
120
100
AcDbEntity
8
0
100
AcDbCircle
10
-70.000001043081284
20
-100
30
0
40
1.9999999999999929
210
0
220
-0
230
1
0
CIRCLE
5
121
100
AcDbEntity
8
0
100
AcDbCircle
10
-30
20
-100
30
0
40
1.9999999999999929
210
0
220
-0
230
1
0
LWPOLYLINE
5
122
100
AcDbEntity
8
0
100
AcDbPolyline
90
4
70
1
43
0.0
10
-68.000001013278961
20
-2.0000000298023224
10
-63.000000938773155
20
-2.0000000298023224
10
-63.000000938773155
20
-29.000000432133675
10
-68.000001013278961
20
-29.000000432133675
0
LWPOLYLINE
5
123
100
AcDbEntity
8
0
100
AcDbPolyline
90
4
70
1
43
0.0
10
-37.000000551342964
20
-2.0000000298023224
10
-32.000000476837158
20
-2.0000000298023224
10
-32.000000476837158
20
-29.000000432133675
10
-37.000000551342964
20
-29.000000432133675
0
LWPOLYLINE
5
124
100
AcDbEntity
8
0
100
AcDbPolyline
90
4
70
1
43
0.0
10
-37.443216320251565
20
-17.986049769342355
10
-41.443210398327544
20
-17.986049769342355
10
-41.443210398327544
20
-12.986063539199389
10
-37.443216320251565
20
-12.986063539199389
0
CIRCLE
5
125
100
AcDbEntity
8
0
100
AcDbCircle
10
-24.688921780950558
20
-15.49529805842867
30
0
40
2
210
0
220
-0
230
1
0
CIRCLE
5
126
100
AcDbEntity
8
0
100
AcDbCircle
10
-44.209273024923249
20
-15.489656745760493
30
0
40
2
210
0
220
-0
230
1
0
CIRCLE
5
127
100
AcDbEntity
8
0
100
AcDbCircle
10
-55.748665751016944
20
-15.491165868555521
30
0
40
2
210
0
220
-0
230
1
0
CIRCLE
5
128
100
AcDbEntity
8
0
100
AcDbCircle
10
-75.266789670223375
20
-15.480330232837133
30
0
40
2
210
0
220
-0
230
1
0
CIRCLE
5
129
100
AcDbEntity
8
0
100
AcDbCircle
10
-65.513567620520746
20
-60.4662465791397
30
0
40
1.5000000000000002
210
0
220
-0
230
1
0
CIRCLE
5
130
100
AcDbEntity
8
0
100
AcDbCircle
10
-67.138121753422354
20
-77.983435594317953
30
0
40
1.5000000000000002
210
0
220
-0
230
1
0
CIRCLE
5
131
100
AcDbEntity
8
0
100
AcDbCircle
10
-50.003805142805604
20
-86.25492470412081
30
0
40
1.5000000000000002
210
0
220
-0
230
1
0
CIRCLE
5
132
100
AcDbEntity
8
0
100
AcDbCircle
10
-32.80082746542746
20
-77.966071221987264
30
0
40
1.5000000000000002
210
0
220
-0
230
1
0
CIRCLE
5
133
100
AcDbEntity
8
0
100
AcDbCircle
10
-34.433718032969097
20
-60.479808348294668
30
0
40
1.5000000000000002
210
0
220
-0
230
1
0
LWPOLYLINE
5
134
100
AcDbEntity
8
0
100
AcDbPolyline
90
4
70
1
43
0.0
10
-72.500679691295929
20
-12.990159275976866
10
-68.500609833537865
20
-12.990159275976866
10
-68.500609833537865
20
-17.98994038265516
10
-72.500679691295929
20
-17.98994038265516
0
LWPOLYLINE
5
135
100
AcDbEntity
8
0
100
AcDbPolyline
90
4
70
1
43
0.0
10
-58.500693274371535
20
-17.990000854479149
10
-62.501252968650078
20
-17.990000854479149
10
-62.501252968650078
20
-12.989952749127745
10
-58.500693274371535
20
-12.989952749127745
0
LWPOLYLINE
5
136
100
AcDbEntity
8
0
100
AcDbPolyline
90
8
70
1
43
0.0
10
-31.443207933248107
20
-12.985926810621136
10
-31.443207933248107
20
-12.985911125017823
10
-27.443185345533752
20
-12.985911125017823
10
-27.443185345533752
20
-12.985926810621136
10
-27.443098296478439
20
-12.985926810621136
10
-27.443098296478439
20
-17.985928835267476
10
-31.443236332951486
20
-17.985928835267476
10
-31.443236332951486
20
-12.985926810621136
0
LWPOLYLINE
5
137
100
AcDbEntity
8
0
100
AcDbPolyline
90
18
70
1
43
0.0
10
-100.00000149011612
20
4.4999997690319971
10
-96.000001490116119
20
4.4999997690320015
10
-96.000001490116119
20
-35.500000230967999
10
-100.00000149011612
20
-35.500000230967999
10
-100
20
-70
10
-93.301270934279984
20
-95.000001043081284
10
-75.00000074505806
20
-113.30127123230324
10
-58.682409628404585
20
-119.24038869369168
10
-41.317591861711549
20
-119.24038869369167
10
-25.000000745058063
20
-113.30127123230321
10
-6.6987305558361321
20
-95.000001043081284
10
0
20
-70
10
0
20
-35.494983349611346
10
-4.0655154069996167
20
-35.494983349611346
10
-4.0655154069996167
20
4.505016650388658
10
0
20
4.505016650388658
10
0
20
10
10
-100
20
10
0
CIRCLE
5
138
100
AcDbEntity
8
0
100
AcDbCircle
10
-13.675155809065558
20
-3.2338147808303574
30
0
40
2
210
0
220
0
230
1
0
CIRCLE
5
139
100
AcDbEntity
8
0
100
AcDbCircle
10
-20.024518904595592
20
-71.850683562679365
30
0
40
2
210
0
220
0
230
1
0
LWPOLYLINE
5
140
100
AcDbEntity
8
0
100
AcDbPolyline
90
4
70
1
43
0.0
10
-36.228171135590372
20
-115.76478915701024
10
-37.263678013255998
20
-111.90085113347325
10
-28.570365821709135
20
-109.5714041556808
10
-27.534933089484809
20
-113.43506550950549
0
CIRCLE
5
141
100
AcDbEntity
8
0
100
AcDbCircle
10
-86.324844190934442
20
-3.2338147808303574
30
0
40
2
210
-0
220
0
230
1
0
CIRCLE
5
142
100
AcDbEntity
8
0
100
AcDbCircle
10
-79.975481095404405
20
-71.850683562679365
30
0
40
2
210
-0
220
0
230
1
0
CIRCLE
5
143
100
AcDbEntity
8
0
100
AcDbCircle
10
-24.688921780950558
20
-15.49529805842867
30
0
40
2
210
0
220
0
230
1
0
CIRCLE
5
144
100
AcDbEntity
8
0
100
AcDbCircle
10
-44.209273024923249
20
-15.489656745760493
30
0
40
2
210
0
220
0
230
1
0
CIRCLE
5
145
100
AcDbEntity
8
0
100
AcDbCircle
10
-55.748665751016944
20
-15.491165868555521
30
0
40
2
210
0
220
0
230
1
0
CIRCLE
5
146
100
AcDbEntity
8
0
100
AcDbCircle
10
-75.266789670223375
20
-15.480330232837133
30
0
40
2
210
0
220
0
230
1
0
CIRCLE
5
147
100
AcDbEntity
8
0
100
AcDbCircle
10
-65.513567620520746
20
-60.4662465791397
30
0
40
1.5000000000000002
210
0
220
0
230
1
0
CIRCLE
5
148
100
AcDbEntity
8
0
100
AcDbCircle
10
-67.138121753422354
20
-77.983435594317953
30
0
40
1.5000000000000002
210
0
220
0
230
1
0
CIRCLE
5
149
100
AcDbEntity
8
0
100
AcDbCircle
10
-50.003805142805604
20
-86.25492470412081
30
0
40
1.5000000000000002
210
0
220
0
230
1
0
CIRCLE
5
150
100
AcDbEntity
8
0
100
AcDbCircle
10
-32.80082746542746
20
-77.966071221987264
30
0
40
1.5000000000000002
210
0
220
0
230
1
0
CIRCLE
5
151
100
AcDbEntity
8
0
100
AcDbCircle
10
-34.433718032969097
20
-60.479808348294668
30
0
40
1.5000000000000002
210
0
220
0
230
1
0
LWPOLYLINE
5
152
100
AcDbEntity
8
0
100
AcDbPolyline
90
4
70
1
43
0.0
10
-68.500609833537865
20
-12.990159275976865
10
-72.500679691295929
20
-12.990159275976865
10
-72.500679691295915
20
-17.98994038265516
10
-68.500609833537865
20
-17.989940382655156
0
LWPOLYLINE
5
153
100
AcDbEntity
8
0
100
AcDbPolyline
90
4
70
1
43
0.0
10
-62.501252968650078
20
-17.990000854479149
10
-58.500693274371535
20
-17.990000854479149
10
-58.500693274371542
20
-12.989952749127745
10
-62.501252968650078
20
-12.989952749127749
0
LWPOLYLINE
5
154
100
AcDbEntity
8
0
100
AcDbPolyline
90
8
70
1
43
0.0
10
-31.443207933248107
20
-12.985911125017822
10
-31.443207933248107
20
-12.985926810621136
10
-31.443236332951486
20
-12.985926810621136
10
-31.443236332951486
20
-17.98592883526748
10
-27.443098296478439
20
-17.98592883526748
10
-27.443098296478439
20
-12.985926810621141
10
-27.443185345533752
20
-12.985926810621136
10
-27.443185345533756
20
-12.985911125017822
0
LWPOLYLINE
5
155
100
AcDbEntity
8
0
100
AcDbPolyline
90
4
70
1
43
0.0
10
-41.443210398327544
20
-17.986049769342358
10
-37.443216320251565
20
-17.986049769342358
10
-37.443216320251565
20
-12.986063539199391
10
-41.443210398327544
20
-12.986063539199391
0
LWPOLYLINE
5
156
100
AcDbEntity
8
0
100
AcDbPolyline
90
4
70
1
43
0.0
10
-32.000000476837158
20
-2.0000000298023224
10
-37.000000551342964
20
-2.0000000298023224
10
-37.000000551342964
20
-29.000000432133675
10
-32.000000476837158
20
-29.000000432133675
0
LWPOLYLINE
5
157
100
AcDbEntity
8
0
100
AcDbPolyline
90
4
70
1
43
0.0
10
-63.000000938773155
20
-2.0000000298023224
10
-68.000001013278961
20
-2.0000000298023224
10
-68.000001013278961
20
-29.000000432133675
10
-63.000000938773155
20
-29.000000432133675
0
CIRCLE
5
158
100
AcDbEntity
8
0
100
AcDbCircle
10
-30
20
-100
30
0
40
1.9999999999999929
210
0
220
0
230
1
0
CIRCLE
5
159
100
AcDbEntity
8
0
100
AcDbCircle
10
-70.000001043081284
20
-100
30
0
40
1.9999999999999929
210
0
220
0
230
1
0
LWPOLYLINE
5
160
100
AcDbEntity
8
0
100
AcDbPolyline
90
4
70
1
43
0.0
10
-4.3000004023313521
20
-31.000000461935997
10
-8.3000004023313512
20
-31.000000461935997
10
-8.3000004023313512
20
-45.000000566244125
10
-4.3000004023313521
20
-45.000000566244118
0
LWPOLYLINE
5
161
100
AcDbEntity
8
0
100
AcDbPolyline
90
4
70
1
43
0.0
10
-91.700001087784784
20
-45.000000670552254
10
-91.700001087784784
20
-31.000000461935997
10
-95.700001087784784
20
-31.000000461935997
10
-95.700001087784784
20
-45.000000670552254
0
LWPOLYLINE
5
162
100
AcDbEntity
8
0
100
AcDbPolyline
90
4
70
1
43
0.0
10
-27.000000402331352
20
-45.000000566244125
10
-27.000000402331352
20
-31.000000566244125
10
-31.000000461935997
20
-31.000000566244129
10
-31.000000461935997
20
-45.000000566244125
0
LWPOLYLINE
5
163
100
AcDbEntity
8
0
100
AcDbPolyline
90
4
70
1
43
0.0
10
-69.000001028180122
20
-31.000000461935997
10
-73.000001087784767
20
-31.000000461935997
10
-73.000001087784767
20
-45.000000566244125
10
-69.000001028180122
20
-45.000000566244118
0
LWPOLYLINE
5
164
100
AcDbEntity
8
0
100
AcDbPolyline
90
18
70
1
43
0.0
10
-96.000001490116119
20
4.4999997690320024
10
-100.00000149011612
20
4.4999997690319979
10
-100
20
10
10
0
20
10
10
0
20
4.505016650388658
10
-4.0655154069996158
20
4.505016650388658
10
-4.0655154069996158
20
-35.494983349611346
10
0
20
-35.494983349611346
10
0
20
-70
10
-6.6987305558361276
20
-95.000001043081284
10
-25.000000745058074
20
-113.30127123230321
10
-41.317591861711549
20
-119.24038869369167
10
-58.682409628404585
20
-119.24038869369168
10
-75.00000074505806
20
-113.30127123230324
10
-93.301270934279984
20
-95.000001043081284
10
-100.00000095591895
20
-70.00000025613771
10
-100
20
-35.500000230967999
10
-96.000001490116119
20
-35.500000230967999
0
LWPOLYLINE
5
165
100
AcDbEntity
8
0
100
AcDbPolyline
90
4
70
1
43
0.0
10
-11.000000089406969
20
9.5000001415610296
10
-36.000000536441803
20
9.5000001415610242
10
-36.000000536441803
20
5.5000001415610233
10
-11.000000089406967
20
5.5000000918904943
0
LWPOLYLINE
5
166
100
AcDbEntity
8
0
100
AcDbPolyline
90
4
70
1
43
0.0
10
-64.000000953674316
20
5.5000000819563732
10
-64.000000953674316
20
9.5000001415610171
10
-89.000001400709152
20
9.5000000918904686
10
-89.000001400709152
20
5.5000000819563644
0
LWPOLYLINE
5
167
100
AcDbEntity
8
0
100
AcDbPolyline
90
4
70
1
43
0.0
10
-6.0000000894069663
20
9.5000001415610313
10
-6.0000000894069654
20
5.3999998793005943
10
-1.9999999552965164
20
5.3999998793005952
10
-2.0000000298023264
20
9.5000001415610349
0
LWPOLYLINE
5
168
100
AcDbEntity
8
0
100
AcDbPolyline
90
4
70
1
43
0.0
10
-1.9999850160581012
20
-50.530632491511454
10
-6.0000000894069538
20
-50.530632491511454
10
-6.0000000894069583
20
-46.607963906236698
10
-2.0000000298023108
20
-46.607963906236691
0
LWPOLYLINE
5
169
100
AcDbEntity
8
0
100
AcDbPolyline
90
4
70
1
43
0.0
10
-62.725948276583424
20
-111.91564668817385
10
-71.419280713184975
20
-109.58627528225095
10
-72.454556893595139
20
-113.44997858740719
10
-63.761224456993631
20
-115.77934999333009
0
LWPOLYLINE
5
170
100
AcDbEntity
8
0
100
AcDbPolyline
90
4
70
1
43
0.0
10
-79.258206990017626
20
-107.41925104404585
10
-74.349694334292636
20
-112.32776369977148
10
-71.521267209546238
20
-109.49933657502552
10
-76.429779865271215
20
-104.59082391929982
0
LWPOLYLINE
5
171
100
AcDbEntity
8
0
100
AcDbPolyline
90
4
70
1
43
0.0
10
-90.521890101589435
20
-83.20804777572431
10
-93.007631453070999
20
-73.931134112768092
10
-96.871334740478105
20
-74.966410216469868
10
-94.385593194242801
20
-84.243323827241966
0
LWPOLYLINE
5
172
100
AcDbEntity
8
0
100
AcDbPolyline
90
4
70
1
43
0.0
10
-94.000000029802237
20
5.3943890091199265
10
-94.000000029802237
20
9.5000001415610278
10
-98.000000089406882
20
9.5000001415610225
10
-98.000000089406868
20
5.3943890091199176
0
LWPOLYLINE
5
173
100
AcDbEntity
8
0
100
AcDbPolyline
90
4
70
1
43
0.0
10
-98.000000089406768
20
-46.607752987300238
10
-98.00000008940674
20
-50.532510314674902
10
-94.000000029802123
20
-50.532510314674894
10
-94.000000029802123
20
-46.607752987300202
0
LWPOLYLINE
5
174
100
AcDbEntity
8
0
100
AcDbPolyline
90
5
70
1
43
0.0
10
-5.6907026825544911
20
-84.300988737643138
10
-3.2050338855196605
20
-75.023911692674631
10
-7.0687493209359982
20
-73.988680784072343
10
-10.071964517651292
20
-85.197357819316835
10
-9.5542201986369317
20
-83.265534633792768
0
LWPOLYLINE
5
175
100
AcDbEntity
8
0
100
AcDbPolyline
90
4
70
1
43
0.0
10
-23.588470110391107
20
-104.59075289393788
10
-28.497279793898898
20
-109.49939681678939
10
-25.668751219200182
20
-112.32750533526996
10
-20.760159105962494
20
-107.41926879009262
0
ENDSEC
0
SECTION
2
OBJECTS
0
DICTIONARY
5
C
100
AcDbDictionary
3
ACAD_GROUP
350
D
3
ACAD_MLINESTYLE
350
17
0
DICTIONARY
5
D
100
AcDbDictionary
0
DICTIONARY
5
1A
330
C
100
AcDbDictionary
0
DICTIONARY
5
17
100
AcDbDictionary
0
ENDSEC
0
EOF
