0
SECTION
2
HEADER
9
$INSUNITS
70
4
9
$ACADVER
1
AC1014
9
$HANDSEED
5
FFFF
0
ENDSEC
0
SECTION
2
TABLES
0
TABLE
2
VPORT
5
8
100
AcDbSymbolTable
0
ENDTAB
0
TABLE
2
LTYPE
5
5
100
AcDbSymbolTable
0
LTYPE
5
14
100
AcDbSymbolTableRecord
100
AcDbLinetypeTableRecord
2
BYBLOCK
70
0
0
LTYPE
5
15
100
AcDbSymbolTableRecord
100
AcDbLinetypeTableRecord
2
BYLAYER
70
0
0
ENDTAB
0
TABLE
2
LAYER
5
2
100
AcDbSymbolTable
70
2
0
LAYER
5
50
100
AcDbSymbolTableRecord
100
AcDbLayerTableRecord
2
0
70
0
6
CONTINUOUS
0
ENDTAB
0
TABLE
2
STYLE
5
3
100
AcDbSymbolTable
70
1
0
STYLE
5
11
100
AcDbSymbolTableRecord
100
AcDbTextStyleTableRecord
2
STANDARD
70
0
0
ENDTAB
0
TABLE
2
VIEW
5
6
100
AcDbSymbolTable
70
0
0
ENDTAB
0
TABLE
2
UCS
5
7
100
AcDbSymbolTable
70
0
0
ENDTAB
0
TABLE
2
APPID
5
9
100
AcDbSymbolTable
70
2
0
APPID
5
12
100
AcDbSymbolTableRecord
100
AcDbRegAppTableRecord
2
ACAD
70
0
0
ENDTAB
0
TABLE
2
DIMSTYLE
5
A
100
AcDbSymbolTable
70
1
0
ENDTAB
0
TABLE
2
BLOCK_RECORD
5
1
100
AcDbSymbolTable
70
1
0
BLOCK_RECORD
5
1F
100
AcDbSymbolTableRecord
100
AcDbBlockTableRecord
2
*MODEL_SPACE
0
BLOCK_RECORD
5
1B
100
AcDbSymbolTableRecord
100
AcDbBlockTableRecord
2
*PAPER_SPACE
0
ENDTAB
0
ENDSEC
0
SECTION
2
BLOCKS
0
BLOCK
5
20
100
AcDbEntity
100
AcDbBlockBegin
2
*MODEL_SPACE
0
ENDBLK
5
21
100
AcDbEntity
100
AcDbBlockEnd
0
BLOCK
5
1C
100
AcDbEntity
100
AcDbBlockBegin
2
*PAPER_SPACE
0
ENDBLK
5
1D
100
AcDbEntity
100
AcDbBlockEnd
0
ENDSEC
0
SECTION
2
ENTITIES
0
LWPOLYLINE
5
100
100
AcDbEntity
8
0
100
AcDbPolyline
90
22
70
1
43
0.0
10
-6.5000000968575478
20
-70.000001043081284
10
-6.5000000968575478
20
-40.000000596046448
10
-2.5000000968575478
20
-40.000000596046448
10
-2.5000000968575478
20
-9.999999925494194
10
-6.5000000968575478
20
-9.999999925494194
10
-6.5000000968575478
20
5.000000074505806
10
-30
20
5.0000000745058006
10
-30
20
9.0000000745058006
10
-70.00000074505806
20
9.00000007450579
10
-70.00000074505806
20
5.0000000745057891
10
-93.500001393258572
20
5.0000000745057793
10
-93.500001393258572
20
-9.9999999254942207
10
-97.500001393258572
20
-9.9999999254942207
10
-97.500001393258572
20
-39.999999925494222
10
-93.500001393258572
20
-39.999999925494222
10
-93.500001393258572
20
-70.000001043081284
10
-87.548258499114894
20
-93.041908205551806
10
-71.293111461197029
20
-109.29910417108582
10
-57.499901131147311
20
-112.9949837400556
10
-42.875647889478891
20
-112.9949837400556
10
-28.945735727310662
20
-109.26187007173669
10
-13.000000193715096
20
-93.000001385807991
0
CIRCLE
5
101
100
AcDbEntity
8
0
100
AcDbCircle
10
-20.024518904595592
20
-71.850683562679365
30
0
40
2
210
0
220
-0
230
1
0
CIRCLE
5
102
100
AcDbEntity
8
0
100
AcDbCircle
10
-79.975481095404405
20
-71.850683562679365
30
0
40
2
210
0
220
-0
230
1
0
CIRCLE
5
103
100
AcDbEntity
8
0
100
AcDbCircle
10
-13.675155809065558
20
-3.2338147808303574
30
0
40
2
210
0
220
-0
230
1
0
CIRCLE
5
104
100
AcDbEntity
8
0
100
AcDbCircle
10
-86.324844190934442
20
-3.2338147808303574
30
0
40
2
210
0
220
-0
230
1
0
LWPOLYLINE
5
105
100
AcDbEntity
8
0
100
AcDbPolyline
90
4
70
1
43
0.0
10
-77.50000074505634
20
-36.999985445295252
10
-77.50000074505806
20
-42.891288294281871
10
-80.000000222460343
20
-42.8912882942819
10
-79.999998752024325
20
-36.999985445295252
0
LWPOLYLINE
5
106
100
AcDbEntity
8
0
100
AcDbPolyline
90
4
70
1
43
0.0
10
-55.000000819563866
20
-15.000000223517418
10
-55.000000819563866
20
-17.938197642184505
10
-61.000000908970833
20
-17.93819764218452
10
-61.000000908970833
20
-15.000000223517418
0
LWPOLYLINE
5
107
100
AcDbEntity
8
0
100
AcDbPolyline
90
4
70
1
43
0.0
10
-22.500000745058056
20
-36.999999172985554
10
-19.500000745058056
20
-37.000000551342964
10
-19.500000745058056
20
-42.8912882942819
10
-22.500000745058056
20
-42.8912882942819
0
LWPOLYLINE
5
108
100
AcDbEntity
8
0
100
AcDbPolyline
90
4
70
1
43
0.0
10
-45.000000670552254
20
-90.000001341104507
10
-45.000000670552254
20
-87.891288294281907
10
-38.906180842258792
20
-87.891288294281907
10
-38.906180842258799
20
-90.000001341104507
0
LWPOLYLINE
5
109
100
AcDbEntity
8
0
100
AcDbPolyline
90
4
70
1
43
0.0
10
-77.50000074505806
20
-60.354419278009871
10
-77.50000074505806
20
-65.354419278009871
10
-80
20
-65.354419278009871
10
-80
20
-60.354419278009871
0
LWPOLYLINE
5
110
100
AcDbEntity
8
0
100
AcDbPolyline
90
4
70
1
43
0.0
10
-45.000000670552254
20
-17.89128829428191
10
-45.000000670552254
20
-15.000000223517418
10
-38.906180842258813
20
-15.000000223517418
10
-38.906180842258806
20
-17.891288294281914
0
LWPOLYLINE
5
111
100
AcDbEntity
8
0
100
AcDbPolyline
90
4
70
1
43
0.0
10
-22.50000074505806
20
-59.183611094241506
10
-19.499997909863815
20
-59.183611094241506
10
-19.500000745058056
20
-65.354419278009871
10
-22.50000074505806
20
-65.354419278009871
0
LWPOLYLINE
5
112
100
AcDbEntity
8
0
100
AcDbPolyline
90
4
70
1
43
0.0
10
-61.000000908970833
20
-87.891288294281907
10
-55.000000819563851
20
-87.891288294281907
10
-55.000000819563866
20
-90.000001341104507
10
-61.000000908970833
20
-90.000001341104507
0
LWPOLYLINE
5
113
100
AcDbEntity
8
0
100
AcDbPolyline
90
4
70
1
43
0.0
10
-29.999999999999993
20
-103.63086734422593
10
-36.000000536441817
20
-103.63086734422593
10
-36.000000536441817
20
-93.548449752627448
10
-29.999999999999993
20
-93.548449752627448
0
LWPOLYLINE
5
114
100
AcDbEntity
8
0
100
AcDbPolyline
90
4
70
1
43
0.0
10
-10
20
-65
10
-15
20
-65
10
-15
20
-10
10
-10
20
-10
0
LWPOLYLINE
5
115
100
AcDbEntity
8
0
100
AcDbPolyline
90
4
70
1
43
0.0
10
-85
20
-20.566653383800389
42
4.6656684377668762
10
-90
20
-20.566759506089287
10
-90
20
-65
10
-85
20
-65
0
LWPOLYLINE
5
116
100
AcDbEntity
8
0
100
AcDbPolyline
90
4
70
1
43
0.0
10
-22.50000074505806
20
-42.8912882942819
10
-22.50000074505806
20
-36.999999172985554
10
-19.500000745058053
20
-37.000000551342964
10
-19.500000745058053
20
-42.8912882942819
0
LWPOLYLINE
5
117
100
AcDbEntity
8
0
100
AcDbPolyline
90
4
70
1
43
0.0
10
-77.50000074505806
20
-36.999985445295252
10
-77.50000074505806
20
-42.891288294281871
10
-80.000000222460343
20
-42.8912882942819
10
-79.999998752024325
20
-36.999985445295245
0
LWPOLYLINE
5
118
100
AcDbEntity
8
0
100
AcDbPolyline
90
4
70
1
43
0.0
10
-38.906180842258813
20
-15.000000223517418
10
-38.906180842258806
20
-17.891288294281914
10
-45.000000670552254
20
-17.89128829428191
10
-45.000000670552254
20
-15.000000223517418
0
LWPOLYLINE
5
119
100
AcDbEntity
8
0
100
AcDbPolyline
90
4
70
1
43
0.0
10
-61.000000908970833
20
-17.93819764218452
10
-61.000000908970833
20
-15.000000223517418
10
-55.000000819563866
20
-15.000000223517418
10
-55.000000819563866
20
-17.938197642184505
0
LWPOLYLINE
5
120
100
AcDbEntity
8
0
100
AcDbPolyline
90
4
70
1
43
0.0
10
-85
20
-20.566653383800389
42
4.6656684377668762
10
-90
20
-20.566759506089291
10
-90
20
-65
10
-85
20
-65
0
LWPOLYLINE
5
121
100
AcDbEntity
8
0
100
AcDbPolyline
90
4
70
1
43
0.0
10
-10
20
-10
10
-15
20
-10
10
-15
20
-65
10
-10
20
-65
0
LWPOLYLINE
5
122
100
AcDbEntity
8
0
100
AcDbPolyline
90
4
70
1
43
0.0
10
-29.999999999999993
20
-93.548449752627448
10
-36.000000536441817
20
-93.548449752627448
10
-36.000000536441824
20
-103.63086734422593
10
-29.999999999999993
20
-103.63086734422593
0
LWPOLYLINE
5
123
100
AcDbEntity
8
0
100
AcDbPolyline
90
4
70
1
43
0.0
10
-61.000000908970833
20
-90.000001341104507
10
-55.000000819563866
20
-90.000001341104507
10
-55.000000819563851
20
-87.891288294281907
10
-61.000000908970833
20
-87.891288294281907
0
LWPOLYLINE
5
124
100
AcDbEntity
8
0
100
AcDbPolyline
90
4
70
1
43
0.0
10
-19.500000745058049
20
-65.354419278009871
10
-19.499997909863808
20
-59.183611094241506
10
-22.50000074505806
20
-59.183611094241506
10
-22.50000074505806
20
-65.354419278009871
0
LWPOLYLINE
5
125
100
AcDbEntity
8
0
100
AcDbPolyline
90
4
70
1
43
0.0
10
-80
20
-60.354419278009871
10
-80
20
-65.354419278009871
10
-77.50000074505806
20
-65.354419278009871
10
-77.50000074505806
20
-60.354419278009871
0
LWPOLYLINE
5
126
100
AcDbEntity
8
0
100
AcDbPolyline
90
4
70
1
43
0.0
10
-38.906180842258799
20
-90.000001341104507
10
-38.906180842258792
20
-87.891288294281907
10
-45.000000670552254
20
-87.891288294281907
10
-45.000000670552254
20
-90.000001341104507
0
LWPOLYLINE
5
127
100
AcDbEntity
8
0
100
AcDbPolyline
90
22
70
1
43
0.0
10
-6.5000000968575478
20
-70.000001043081284
10
-6.5000000968575478
20
-40.000000596046448
10
-2.5000000968575478
20
-40.000000596046448
10
-2.5000000968575478
20
-9.999999925494194
10
-6.5000000968575478
20
-9.999999925494194
10
-6.5000000968575478
20
5.000000074505806
10
-30
20
5.0000000745058006
10
-30
20
9.0000000745058006
10
-70.00000074505806
20
9.00000007450579
10
-70.00000074505806
20
5.0000000745057891
10
-93.500001393258572
20
5.0000000745057829
10
-93.500001393258572
20
-9.9999999254942207
10
-97.500001393258572
20
-9.9999999254942207
10
-97.500001393258572
20
-39.999999925494222
10
-93.500001393258572
20
-39.999999925494215
10
-93.500001393258572
20
-70.000001043081284
10
-87.548258499114894
20
-93.041908205551806
10
-71.293111461197029
20
-109.29910417108582
10
-57.499901131147311
20
-112.9949837400556
10
-42.875647889478891
20
-112.9949837400556
10
-28.945735727310662
20
-109.26187007173669
10
-13.000000193715096
20
-93.000001385807991
0
CIRCLE
5
128
100
AcDbEntity
8
0
100
AcDbCircle
10
-20.024518904595592
20
-71.850683562679365
30
0
40
2
210
0
220
0
230
1
0
CIRCLE
5
129
100
AcDbEntity
8
0
100
AcDbCircle
10
-79.975481095404405
20
-71.850683562679365
30
0
40
2
210
-0
220
0
230
1
0
CIRCLE
5
130
100
AcDbEntity
8
0
100
AcDbCircle
10
-13.675155809065558
20
-3.2338147808303574
30
0
40
2
210
0
220
0
230
1
0
CIRCLE
5
131
100
AcDbEntity
8
0
100
AcDbCircle
10
-86.324844190934442
20
-3.2338147808303574
30
0
40
2
210
-0
220
0
230
1
0
ENDSEC
0
SECTION
2
OBJECTS
0
DICTIONARY
5
C
100
AcDbDictionary
3
ACAD_GROUP
350
D
3
ACAD_MLINESTYLE
350
17
0
DICTIONARY
5
D
100
AcDbDictionary
0
DICTIONARY
5
1A
330
C
100
AcDbDictionary
0
DICTIONARY
5
17
100
AcDbDictionary
0
ENDSEC
0
EOF
