0
SECTION
2
HEADER
9
$INSUNITS
70
4
9
$ACADVER
1
AC1014
9
$HANDSEED
5
FFFF
0
ENDSEC
0
SECTION
2
TABLES
0
TABLE
2
VPORT
5
8
100
AcDbSymbolTable
0
ENDTAB
0
TABLE
2
LTYPE
5
5
100
AcDbSymbolTable
0
LTYPE
5
14
100
AcDbSymbolTableRecord
100
AcDbLinetypeTableRecord
2
BYBLOCK
70
0
0
LTYPE
5
15
100
AcDbSymbolTableRecord
100
AcDbLinetypeTableRecord
2
BYLAYER
70
0
0
ENDTAB
0
TABLE
2
LAYER
5
2
100
AcDbSymbolTable
70
2
0
LAYER
5
50
100
AcDbSymbolTableRecord
100
AcDbLayerTableRecord
2
0
70
0
6
CONTINUOUS
0
ENDTAB
0
TABLE
2
STYLE
5
3
100
AcDbSymbolTable
70
1
0
STYLE
5
11
100
AcDbSymbolTableRecord
100
AcDbTextStyleTableRecord
2
STANDARD
70
0
0
ENDTAB
0
TABLE
2
VIEW
5
6
100
AcDbSymbolTable
70
0
0
ENDTAB
0
TABLE
2
UCS
5
7
100
AcDbSymbolTable
70
0
0
ENDTAB
0
TABLE
2
APPID
5
9
100
AcDbSymbolTable
70
2
0
APPID
5
12
100
AcDbSymbolTableRecord
100
AcDbRegAppTableRecord
2
ACAD
70
0
0
ENDTAB
0
TABLE
2
DIMSTYLE
5
A
100
AcDbSymbolTable
70
1
0
ENDTAB
0
TABLE
2
BLOCK_RECORD
5
1
100
AcDbSymbolTable
70
1
0
BLOCK_RECORD
5
1F
100
AcDbSymbolTableRecord
100
AcDbBlockTableRecord
2
*MODEL_SPACE
0
BLOCK_RECORD
5
1B
100
AcDbSymbolTableRecord
100
AcDbBlockTableRecord
2
*PAPER_SPACE
0
ENDTAB
0
ENDSEC
0
SECTION
2
BLOCKS
0
BLOCK
5
20
100
AcDbEntity
100
AcDbBlockBegin
2
*MODEL_SPACE
0
ENDBLK
5
21
100
AcDbEntity
100
AcDbBlockEnd
0
BLOCK
5
1C
100
AcDbEntity
100
AcDbBlockBegin
2
*PAPER_SPACE
0
ENDBLK
5
1D
100
AcDbEntity
100
AcDbBlockEnd
0
ENDSEC
0
SECTION
2
ENTITIES
0
LWPOLYLINE
5
100
100
AcDbEntity
8
0
100
AcDbPolyline
90
4
70
1
43
0.0
10
9.9999999254940146
20
73.000000002235154
10
39.999999925493995
20
73.000000002235154
10
39.999999925493995
20
69.000000002235154
10
9.9999999254940164
20
69.000000002235168
0
LINE
5
101
100
AcDbEntity
8
0
100
AcDbLine
10
45.022288795561721
20
91.900000002235174
30
-1.7763568394002505e-14
11
15.022288795561742
21
91.900000002235146
31
-1.7763568394002498e-14
0
LINE
5
102
100
AcDbEntity
8
0
100
AcDbLine
10
15.022288795561742
20
91.900000002235146
30
-1.7763568394002498e-14
11
15.022288795561751
21
87.90000000223516
31
-1.7763568394002505e-14
0
LINE
5
103
100
AcDbEntity
8
0
100
AcDbLine
10
15.022288795561751
20
87.90000000223516
30
-1.7763568394002505e-14
11
-9.5000001415612516
21
87.900000002235132
31
-1.7763568394002511e-14
0
LINE
5
104
100
AcDbEntity
8
0
100
AcDbLine
10
-9.5000001415612516
20
87.900000002235132
30
-1.7763568394002511e-14
11
-9.5000001415612196
21
22.900000002235153
31
-1.7763568394002505e-14
0
LINE
5
105
100
AcDbEntity
8
0
100
AcDbLine
10
-9.5000001415612196
20
22.900000002235153
30
-1.7763568394002505e-14
11
-5.3943890091201174
21
22.900000002235153
31
-1.7763568394002505e-14
0
LINE
5
106
100
AcDbEntity
8
0
100
AcDbLine
10
-5.3943890091201174
20
22.900000002235153
30
-1.7763568394002505e-14
11
-5.3943890091201201
21
29.000000002235158
31
-1.7763568394002505e-14
0
SPLINE
5
107
100
AcDbEntity
8
0
100
AcDbSpline
70
0
71
3
72
28
73
24
74
0
42
0.000000001
43
0.0000000001
44
0.0000000001
40
0.012488758391922324
40
0.012488758391922324
40
0.012488758391922324
40
0.012488758391922324
40
2.3906379623619536
40
2.3906379623619536
40
3.9535480423651519
40
3.9535480423651519
40
5.4750477411680158
40
5.4750477411680158
40
8.5426567362438046
40
8.5426567362438046
40
10.325742335130448
40
10.325742335130448
40
12.233024757417322
40
12.233024757417322
40
12.993104217844973
40
12.993104217844973
40
13.590611698441736
40
13.590611698441736
40
14.195772882830884
40
14.195772882830884
40
15.111721064251917
40
15.111721064251917
40
16.770127269022957
40
16.770127269022957
40
16.770127269022957
40
16.770127269022957
10
-5.3943890091208981
20
29.000000002234533
30
-1.7763568394002505e-14
10
0.76341943728706718
20
33.953076186540741
30
-1.7763568394002505e-14
10
5.6003568454670383
20
36.825508788170403
30
-1.7763568394002505e-14
10
12.270510835197808
20
39.235211501375744
30
-1.7763568394002505e-14
10
14.448891257669978
20
39.526508734178854
30
-1.7763568394002505e-14
10
18.167596637635366
20
39.365694552245671
30
-1.7763568394002505e-14
10
19.754890945899206
20
38.932720226403632
30
-1.7763568394002505e-14
10
24.305259859539614
20
37.237737301440347
30
-1.7763568394002505e-14
10
26.962269487281127
20
35.598501925896414
30
-1.7763568394002505e-14
10
32.681708952435585
20
35.018137560527187
30
-1.7763568394002505e-14
10
34.589635856367607
20
35.286600087978925
30
-1.7763568394002505e-14
10
38.438666888603102
20
36.064549362406929
30
-1.7763568394002505e-14
10
40.297051759097769
20
36.575731576643719
30
-1.7763568394002505e-14
10
42.507006121492054
20
36.645190857309672
30
-1.7763568394002505e-14
10
43.101750819176353
20
36.592255854121987
30
-1.7763568394002505e-14
10
44.070825517308556
20
36.287953266239612
30
-1.7763568394002505e-14
10
44.456075251344529
20
36.084114593904602
30
-1.7763568394002505e-14
10
45.144399645028599
20
35.505446936946207
30
-1.7763568394002505e-14
10
45.420412696556191
20
35.149983673555298
30
-1.7763568394002505e-14
10
45.978694962683662
20
34.160611987095393
30
-1.7763568394002505e-14
10
46.192187830991926
20
33.474936676530831
30
-1.7763568394002505e-14
10
46.583275352765945
20
31.598395421351427
30
-1.7763568394002505e-14
10
46.634944665706868
20
30.234017185504083
30
-1.7763568394002505e-14
10
46.607752987299982
20
29.000000002235161
30
-1.7763568394002505e-14
0
LINE
5
108
100
AcDbEntity
8
0
100
AcDbLine
10
46.607752987299982
20
29.000000002235161
30
-1.7763568394002505e-14
11
46.60775298730001
21
22.900000002235181
31
-1.7763568394002505e-14
0
LINE
5
109
100
AcDbEntity
8
0
100
AcDbLine
10
46.60775298730001
20
22.900000002235181
30
-1.7763568394002505e-14
11
50.532510314674674
21
22.900000002235181
31
-1.7763568394002505e-14
0
LINE
5
110
100
AcDbEntity
8
0
100
AcDbLine
10
50.532510314674674
20
22.900000002235181
30
-1.7763568394002505e-14
11
50.532510314674674
21
29.000000002235183
31
-1.7763568394002505e-14
0
LINE
5
111
100
AcDbEntity
8
0
100
AcDbLine
10
50.532510314674674
20
29.000000002235183
30
-1.7763568394002505e-14
11
51.532510314674667
21
29.000000002235179
31
-1.7763568394002505e-14
0
SPLINE
5
112
100
AcDbEntity
8
0
100
AcDbSpline
70
0
71
3
72
18
73
14
74
0
42
0.000000001
43
0.0000000001
44
0.0000000001
40
0.01000330224515664
40
0.01000330224515664
40
0.01000330224515664
40
0.01000330224515664
40
0.58914679815172055
40
0.58914679815172055
40
0.93991475601478292
40
0.93991475601478292
40
1.2057977140823377
40
1.2057977140823377
40
1.4810865230340966
40
1.4810865230340966
40
1.9197183364405159
40
1.9197183364405159
40
2.703915920873512
40
2.703915920873512
40
2.703915920873512
40
2.703915920873512
10
51.532510314674681
20
29.000000002235172
30
-1.7763568394002505e-14
10
51.421854822464475
20
30.932670835971081
30
-1.7763568394002505e-14
10
51.475473456394639
20
33.027019940158134
30
-1.7763568394002505e-14
10
52.177020942845296
20
36.048914048631417
30
-1.7763568394002505e-14
10
52.596224717054
20
37.171708730647957
30
-1.7763568394002505e-14
10
53.75816496921226
20
38.875293752556964
30
-1.7763568394002505e-14
10
54.374044586648715
20
39.487140056171327
30
-1.7763568394002505e-14
10
55.892700277273534
20
40.473670731947912
30
-1.7763568394002505e-14
10
56.751987850249378
20
40.804429173631775
30
-1.7763568394002505e-14
10
59.071814807477274
20
41.352912564047166
30
-1.7763568394002505e-14
10
60.625293140476302
20
41.394784343075102
30
-1.7763568394002505e-14
10
64.684654680616461
20
41.145452102691465
30
-1.7763568394002505e-14
10
67.489170786852085
20
40.534410253142241
30
-1.7763568394002505e-14
10
69.999999918043386
20
39.827842513256982
30
-1.7763568394002505e-14
0
LINE
5
113
100
AcDbEntity
8
0
100
AcDbLine
10
69.999999918043386
20
39.827842513256982
30
-1.7763568394002505e-14
11
69.999999918043358
21
87.900000002235174
31
-1.7763568394002505e-14
0
LINE
5
114
100
AcDbEntity
8
0
100
AcDbLine
10
69.999999918043358
20
87.900000002235174
30
-1.7763568394002505e-14
11
45.022288795561742
21
87.90000000223516
31
-1.7763568394002505e-14
0
LINE
5
115
100
AcDbEntity
8
0
100
AcDbLine
10
45.022288795561742
20
87.90000000223516
30
-1.7763568394002505e-14
11
45.022288795561721
21
91.900000002235174
31
-1.7763568394002505e-14
0
LINE
5
116
100
AcDbEntity
8
0
100
AcDbLine
10
15.022288795561762
20
91.900000002235203
30
0
11
45.022288795561778
21
91.900000002235217
31
-9.4368957093138621e-15
0
LINE
5
117
100
AcDbEntity
8
0
100
AcDbLine
10
15.022288795561764
20
87.900000002235203
30
-1.7763568394002505e-14
11
15.022288795561762
21
91.900000002235203
31
0
0
LINE
5
118
100
AcDbEntity
8
0
100
AcDbLine
10
69.942477873479518
20
88.000000002235225
30
-1.7763568394002505e-14
11
69.999999918043414
21
88.000000002235225
31
-1.7645423142150551e-14
0
LINE
5
119
100
AcDbEntity
8
0
100
AcDbLine
10
69.999999918043414
20
87.900000002235217
30
-1.7763568394002505e-14
11
69.999999918043414
21
88.000000002235225
31
-1.7645423142150551e-14
0
LINE
5
120
100
AcDbEntity
8
0
100
AcDbLine
10
69.942477873479518
20
88.000000002235225
30
-1.7763568394002505e-14
11
69.942477873479504
21
87.900000002235217
31
-1.7763568394002505e-14
0
LINE
5
121
100
AcDbEntity
8
0
100
AcDbLine
10
45.022288795561778
20
87.900000002235203
30
-1.7763568394002505e-14
11
69.942477873479504
21
87.900000002235217
31
-1.7763568394002505e-14
0
LINE
5
122
100
AcDbEntity
8
0
100
AcDbLine
10
-9.5000001415612587
20
87.900000002235174
30
-1.7763568394002505e-14
11
15.022288795561764
21
87.900000002235203
31
-1.7763568394002505e-14
0
LINE
5
123
100
AcDbEntity
8
0
100
AcDbLine
10
69.999999918043429
20
39.827842513256996
30
-1.7763568394002505e-14
11
69.999999918043414
21
87.900000002235217
31
-1.7763568394002505e-14
0
LINE
5
124
100
AcDbEntity
8
0
100
AcDbLine
10
-9.5000001415612285
20
22.900000002235164
30
-1.7763568394002505e-14
11
-9.5000001415612587
21
87.900000002235174
31
-1.7763568394002505e-14
0
LWPOLYLINE
5
125
100
AcDbEntity
8
0
100
AcDbPolyline
90
4
70
1
43
0.0
10
9.9999999254940324
20
69.000000002235197
10
39.999999925494045
20
69.000000002235197
10
39.999999925494045
20
73.000000002235197
10
9.9999999254940288
20
73.000000002235183
0
LINE
5
126
100
AcDbEntity
8
0
100
AcDbLine
10
45.022288795561778
20
91.900000002235217
30
-9.4368957093138621e-15
11
45.022288795561778
21
87.900000002235203
31
-1.7763568394002505e-14
0
LINE
5
127
100
AcDbEntity
8
0
100
AcDbLine
10
51.53251031467471
20
29.00000000223519
30
-1.7763568394002505e-14
11
50.532510314674717
21
29.00000000223519
31
-1.9817480989559038e-14
0
LINE
5
128
100
AcDbEntity
8
0
100
AcDbLine
10
50.532510314674717
20
29.00000000223519
30
-1.9817480989559038e-14
11
50.532510314674695
21
22.900000002235188
31
-1.7763568394002508e-14
0
SPLINE
5
129
100
AcDbEntity
8
0
100
AcDbSpline
70
4
71
5
72
21
73
15
74
0
42
0.000000001
43
0.0000000001
44
0.0000000001
40
0
40
0
40
0
40
0
40
0
40
0
40
0.10000000000000001
40
0.20000000000000001
40
0.30000000000000004
40
0.40000000000000002
40
0.5
40
0.59999999999999998
40
0.69999999999999996
40
0.79999999999999993
40
0.89999999999999991
40
0.99701088872714028
40
0.99701088872714028
40
0.99701088872714028
40
0.99701088872714028
40
0.99701088872714028
40
0.99701088872714028
41
1
41
1
41
1
41
1
41
1
41
1
41
1
41
1
41
1
41
1
41
1
41
1
41
1
41
1
41
1
10
69.999999918043429
20
39.827842513256996
30
-1.7763568394002505e-14
10
69.238144928268525
20
40.042234704090845
30
-1.7763568394002505e-14
10
67.74772352810642
20
40.434311439792594
30
-1.7763568394002505e-14
10
65.611950780739164
20
40.912310646566866
30
-1.7763568394002505e-14
10
62.967313439111848
20
41.325727031055131
30
-1.7763568394002505e-14
10
60.023796317563864
20
41.443008260141255
30
-1.7763568394002505e-14
10
57.478076680053334
20
41.121634266336287
30
-1.7763568394002505e-14
10
55.367917377589897
20
40.319963580060246
30
-1.7763568394002505e-14
10
53.72251524926196
20
39.005800557860667
30
-1.7763568394002505e-14
10
52.537157707906545
20
37.184341816235332
30
-1.7763568394002505e-14
10
51.787239175843432
20
34.901423422461185
30
-1.7763568394002505e-14
10
51.502757161502203
20
32.73097642079162
30
-1.7763568394002505e-14
10
51.45530733837991
20
30.924864522742268
30
-1.7763568394002505e-14
10
51.495413720595806
20
29.647916377421261
30
-1.7763568394002505e-14
10
51.53251031467471
20
29.000000002235197
30
-1.7763568394002505e-14
0
LINE
5
130
100
AcDbEntity
8
0
100
AcDbLine
10
46.607752987300017
20
22.900000002235188
30
-1.7763568394002505e-14
11
50.532510314674695
21
22.900000002235188
31
-1.7763568394002508e-14
0
LINE
5
131
100
AcDbEntity
8
0
100
AcDbLine
10
46.607752987300017
20
29.000000002235193
30
-1.7763568394002505e-14
11
46.607752987300017
21
22.900000002235188
31
-1.7763568394002505e-14
0
SPLINE
5
132
100
AcDbEntity
8
0
100
AcDbSpline
70
4
71
5
72
36
73
30
74
0
42
0.000000001
43
0.0000000001
44
0.0000000001
40
0.00097124283125087855
40
0.00097124283125087855
40
0.00097124283125087855
40
0.00097124283125087855
40
0.00097124283125087855
40
0.00097124283125087855
40
0.040000000000000001
40
0.080000000000000002
40
0.12
40
0.16
40
0.20000000000000001
40
0.24000000000000002
40
0.28000000000000003
40
0.32000000000000001
40
0.35999999999999999
40
0.39999999999999997
40
0.43999999999999995
40
0.47999999999999993
40
0.51999999999999991
40
0.55999999999999994
40
0.59999999999999998
40
0.64000000000000001
40
0.68000000000000005
40
0.72000000000000008
40
0.76000000000000012
40
0.80000000000000016
40
0.84000000000000019
40
0.88000000000000023
40
0.92000000000000026
40
0.9600000000000003
40
0.99902645282664904
40
0.99902645282664904
40
0.99902645282664904
40
0.99902645282664904
40
0.99902645282664904
40
0.99902645282664904
41
1
41
1
41
1
41
1
41
1
41
1
41
1
41
1
41
1
41
1
41
1
41
1
41
1
41
1
41
1
41
1
41
1
41
1
41
1
41
1
41
1
41
1
41
1
41
1
41
1
41
1
41
1
41
1
41
1
41
1
10
46.607752987300032
20
29.000000002235492
30
-1.7763568394002505e-14
10
46.621566363366682
20
29.626880887268197
30
-1.7763568394002505e-14
10
46.612484940862672
20
30.829022944592044
30
-1.7763568394002505e-14
10
46.485797978975583
20
32.434600365146729
30
-1.7763568394002505e-14
10
46.088588752159218
20
34.166212153287717
30
-1.7763568394002505e-14
10
45.212985943161073
20
35.649271353747316
30
-1.7763568394002505e-14
10
43.965285230126199
20
36.482755308023549
30
-1.7763568394002505e-14
10
42.383441746777891
20
36.736062352392544
30
-1.7763568394002505e-14
10
40.530427243248596
20
36.550353667758749
30
-1.7763568394002505e-14
10
38.489934360993566
20
36.111267331553691
30
-1.7763568394002505e-14
10
36.350938827582858
20
35.613241877407795
30
-1.7763568394002505e-14
10
34.195583926681692
20
35.231484391483676
30
-1.7763568394002505e-14
10
32.083665890035974
20
35.085607389458239
30
-1.7763568394002505e-14
10
30.045366987665997
20
35.223692034536377
30
-1.7763568394002505e-14
10
28.087511227970499
20
35.640040593598783
30
-1.7763568394002505e-14
10
26.196518616860061
20
36.284763803857331
30
-1.7763568394002505e-14
10
24.342466570933851
20
37.075975833470501
30
-1.7763568394002505e-14
10
22.482318058580766
20
37.910447347882702
30
-1.7763568394002505e-14
10
20.565372081706414
20
38.674069964137693
30
-1.7763568394002505e-14
10
18.538979634338098
20
39.252264051904682
30
-1.7763568394002505e-14
10
16.353814267559962
20
39.539755366462927
30
-1.7763568394002505e-14
10
13.970188360079947
20
39.452284071068114
30
-1.7763568394002505e-14
10
11.361477869117087
20
38.93281915049257
30
-1.7763568394002505e-14
10
8.5106921350782958
20
37.944618809502217
30
-1.7763568394002505e-14
10
5.4085856688739309
20
36.467270602011006
30
-1.7763568394002505e-14
10
2.0676943277791278
20
34.501555156581098
30
-1.7763568394002505e-14
10
-0.80362270244338074
20
32.536321993489651
30
-1.7763568394002505e-14
10
-3.0652612762445623
20
30.845320847687393
30
-1.7763568394002505e-14
10
-4.6163376472291198
20
29.625831043326478
30
-1.7763568394002505e-14
10
-5.394389010337628
20
29.000000001255867
30
-1.7763568394002505e-14
0
LINE
5
133
100
AcDbEntity
8
0
100
AcDbLine
10
-5.394389010337628
20
29.000000001255867
30
-1.7763568394002505e-14
11
-5.3943890091201254
21
22.900000002235164
31
-1.7763568394002505e-14
0
LINE
5
134
100
AcDbEntity
8
0
100
AcDbLine
10
-9.5000001415612285
20
22.900000002235164
30
-1.7763568394002505e-14
11
-5.3943890091201254
21
22.900000002235164
31
-1.7763568394002505e-14
0
ENDSEC
0
SECTION
2
OBJECTS
0
DICTIONARY
5
C
100
AcDbDictionary
3
ACAD_GROUP
350
D
3
ACAD_MLINESTYLE
350
17
0
DICTIONARY
5
D
100
AcDbDictionary
0
DICTIONARY
5
1A
330
C
100
AcDbDictionary
0
DICTIONARY
5
17
100
AcDbDictionary
0
ENDSEC
0
EOF
