0
SECTION
2
HEADER
9
$INSUNITS
70
4
9
$ACADVER
1
AC1014
9
$HANDSEED
5
FFFF
0
ENDSEC
0
SECTION
2
TABLES
0
TABLE
2
VPORT
5
8
100
AcDbSymbolTable
0
ENDTAB
0
TABLE
2
LTYPE
5
5
100
AcDbSymbolTable
0
LTYPE
5
14
100
AcDbSymbolTableRecord
100
AcDbLinetypeTableRecord
2
BYBLOCK
70
0
0
LTYPE
5
15
100
AcDbSymbolTableRecord
100
AcDbLinetypeTableRecord
2
BYLAYER
70
0
0
ENDTAB
0
TABLE
2
LAYER
5
2
100
AcDbSymbolTable
70
2
0
LAYER
5
50
100
AcDbSymbolTableRecord
100
AcDbLayerTableRecord
2
0
70
0
6
CONTINUOUS
0
ENDTAB
0
TABLE
2
STYLE
5
3
100
AcDbSymbolTable
70
1
0
STYLE
5
11
100
AcDbSymbolTableRecord
100
AcDbTextStyleTableRecord
2
STANDARD
70
0
0
ENDTAB
0
TABLE
2
VIEW
5
6
100
AcDbSymbolTable
70
0
0
ENDTAB
0
TABLE
2
UCS
5
7
100
AcDbSymbolTable
70
0
0
ENDTAB
0
TABLE
2
APPID
5
9
100
AcDbSymbolTable
70
2
0
APPID
5
12
100
AcDbSymbolTableRecord
100
AcDbRegAppTableRecord
2
ACAD
70
0
0
ENDTAB
0
TABLE
2
DIMSTYLE
5
A
100
AcDbSymbolTable
70
1
0
ENDTAB
0
TABLE
2
BLOCK_RECORD
5
1
100
AcDbSymbolTable
70
1
0
BLOCK_RECORD
5
1F
100
AcDbSymbolTableRecord
100
AcDbBlockTableRecord
2
*MODEL_SPACE
0
BLOCK_RECORD
5
1B
100
AcDbSymbolTableRecord
100
AcDbBlockTableRecord
2
*PAPER_SPACE
0
ENDTAB
0
ENDSEC
0
SECTION
2
BLOCKS
0
BLOCK
5
20
100
AcDbEntity
100
AcDbBlockBegin
2
*MODEL_SPACE
0
ENDBLK
5
21
100
AcDbEntity
100
AcDbBlockEnd
0
BLOCK
5
1C
100
AcDbEntity
100
AcDbBlockBegin
2
*PAPER_SPACE
0
ENDBLK
5
1D
100
AcDbEntity
100
AcDbBlockEnd
0
ENDSEC
0
SECTION
2
ENTITIES
0
LINE
5
100
100
AcDbEntity
8
0
100
AcDbLine
10
64.210484251615497
20
92.000000000000668
30
3.5527136788005009e-14
11
46.210484182114854
21
92.000000000000625
31
3.3861802251067312e-14
0
LINE
5
101
100
AcDbEntity
8
0
100
AcDbLine
10
46.210484182114854
20
92.000000000000625
30
3.3861802251067312e-14
11
46.210484182114875
21
88.000000000000611
31
1.7763568394002511e-14
0
LINE
5
102
100
AcDbEntity
8
0
100
AcDbLine
10
46.210484182114875
20
88.000000000000611
30
1.7763568394002511e-14
11
43.210484182114982
21
88.000000000000398
31
1.7486012637846433e-14
0
LINE
5
103
100
AcDbEntity
8
0
100
AcDbLine
10
43.210484182114982
20
88.000000000000398
30
1.7486012637846433e-14
11
43.210484182115145
21
39.909604666000114
31
3.5527136788005035e-14
0
SPLINE
5
104
100
AcDbEntity
8
0
100
AcDbSpline
70
0
71
3
72
18
73
14
74
0
42
0.000000001
43
0.0000000001
44
0.0000000001
40
0
40
0
40
0
40
0
40
0.16765515946172424
40
0.16765515946172424
40
0.31418200573749577
40
0.31418200573749577
40
0.47682225116066657
40
0.47682225116066657
40
0.66771297869652091
40
0.66771297869652091
40
0.8302345139355447
40
0.8302345139355447
40
0.99918431826387588
40
0.99918431826387588
40
0.99918431826387588
40
0.99918431826387588
10
43.210484182115145
20
39.909604666000121
30
3.5527136788005009e-14
10
43.769179870602748
20
39.896450036895487
30
1.7763568394002505e-14
10
44.317589974800327
20
39.794257000538558
30
3.5527136788005009e-14
10
45.276558354716613
20
39.373372974451904
30
1.7763568394002505e-14
10
45.669610999024016
20
39.094920089322102
30
1.7763568394002505e-14
10
46.382511412605865
20
38.352301973035836
30
1.7763568394002505e-14
10
46.673500546083559
20
37.887655521382499
30
1.7763568394002505e-14
10
47.143248134714227
20
36.809253756524576
30
1.7763568394002505e-14
10
47.337661606847718
20
36.082836471361489
30
1.7763568394002505e-14
10
47.423884770129931
20
34.506598491652404
30
1.7763568394002505e-14
10
47.36587554699129
20
33.551519102772687
30
0
10
46.64707615687589
20
31.187010261550697
30
0
10
46.046782899799688
20
30.042961308846824
30
1.7763568394002505e-14
10
45.339844959269641
20
29.00000000000022
30
1.7763568394002505e-14
0
LINE
5
105
100
AcDbEntity
8
0
100
AcDbLine
10
45.339844959269641
20
29.000000000000227
30
1.7763568394002501e-14
11
47.339844959269648
21
29.00000000000022
31
1.7971735211119721e-14
0
LINE
5
106
100
AcDbEntity
8
0
100
AcDbLine
10
47.339844959269648
20
29.00000000000022
30
1.7971735211119721e-14
11
47.339844959269676
21
22.000000000000199
31
3.944304526105059e-30
0
LINE
5
107
100
AcDbEntity
8
0
100
AcDbLine
10
47.339844959269676
20
22.000000000000199
30
3.944304526105059e-30
11
56.94401265753531
21
22.000000000000203
31
1.8873791418627658e-14
0
LINE
5
108
100
AcDbEntity
8
0
100
AcDbLine
10
56.94401265753531
20
22.000000000000203
30
1.8873791418627658e-14
11
56.944012657535275
21
29.000000000000227
31
1.7763568394002501e-14
0
LINE
5
109
100
AcDbEntity
8
0
100
AcDbLine
10
56.944012657535275
20
29.000000000000227
30
1.7763568394002501e-14
11
58.944012657535289
21
29.000000000000227
31
1.7971735211119721e-14
0
SPLINE
5
110
100
AcDbEntity
8
0
100
AcDbSpline
70
0
71
3
72
18
73
14
74
0
42
0.000000001
43
0.0000000001
44
0.0000000001
40
0
40
0
40
0
40
0
40
0.62999641464136902
40
0.62999641464136902
40
0.98597801185255673
40
0.98597801185255673
40
1.2886030715211196
40
1.2886030715211196
40
1.561700117821067
40
1.561700117821067
40
1.8705147563922968
40
1.8705147563922968
40
2.2306481545301375
40
2.2306481545301375
40
2.2306481545301375
40
2.2306481545301375
10
58.94401265753531
20
29.000000000000227
30
1.7763568394002505e-14
10
58.871374535270903
20
31.098731404519611
30
1.7763568394002505e-14
10
58.933813308702796
20
33.566298701024174
30
1.7763568394002505e-14
10
59.689905763687264
20
36.775517529041942
30
3.5527136788005009e-14
10
60.049397818518031
20
37.602455689583635
30
1.7763568394002505e-14
10
60.76221025134187
20
38.733143785947007
30
1.7763568394002505e-14
10
61.164670767487266
20
39.185008211981994
30
1.7763568394002505e-14
10
62.119578109027181
20
39.860741452948162
30
1.7763568394002505e-14
10
62.620992268085885
20
40.079478072509019
30
3.5527136788005009e-14
10
63.765388231137891
20
40.370312227071032
30
1.7763568394002505e-14
10
64.402188425738032
20
40.41525404543524
30
3.5527136788005009e-14
10
65.757410432756416
20
40.366785155689627
30
1.7763568394002505e-14
10
66.499589669439473
20
40.248167317616222
30
1.7763568394002505e-14
10
67.210484182115209
20
40.081451854585566
30
3.5527136788005009e-14
0
LINE
5
111
100
AcDbEntity
8
0
100
AcDbLine
10
67.210484182115209
20
40.08145185458558
30
3.5527136788005009e-14
11
67.210484251615583
21
88.000000000000398
31
1.7763568394002489e-14
0
LINE
5
112
100
AcDbEntity
8
0
100
AcDbLine
10
67.210484251615583
20
88.000000000000398
30
1.7763568394002489e-14
11
64.210484251615483
21
88.000000000000654
31
1.7486012637845963e-14
0
LINE
5
113
100
AcDbEntity
8
0
100
AcDbLine
10
64.210484251615483
20
88.000000000000654
30
1.7486012637845963e-14
11
64.210484251615497
21
92.000000000000668
31
3.5527136788005009e-14
0
LINE
5
114
100
AcDbEntity
8
0
100
AcDbLine
10
46.210484220528024
20
92.000000000000369
30
3.5527136788005009e-14
11
64.210484220528073
21
92.000000000000441
31
4.6074255521943927e-14
0
LINE
5
115
100
AcDbEntity
8
0
100
AcDbLine
10
46.210484220528031
20
88.000000000000384
30
1.7763568394002505e-14
11
46.210484220528024
21
92.000000000000369
31
3.5527136788005009e-14
0
LINE
5
116
100
AcDbEntity
8
0
100
AcDbLine
10
64.210484220528087
20
88.000000000000398
30
1.7763568394002505e-14
11
67.210484220528159
21
88.000000000000398
31
1.5265566588595902e-14
0
LINE
5
117
100
AcDbEntity
8
0
100
AcDbLine
10
43.210484220528173
20
88.000000000000369
30
1.7763568394002505e-14
11
46.210484220528031
21
88.000000000000384
31
1.7763568394002505e-14
0
LINE
5
118
100
AcDbEntity
8
0
100
AcDbLine
10
67.210484220528187
20
40.08145185458546
30
3.5527136788005009e-14
11
67.210484220528159
21
88.000000000000398
31
1.5265566588595902e-14
0
LINE
5
119
100
AcDbEntity
8
0
100
AcDbLine
10
43.210484220528173
20
39.909604666000007
30
3.5527136788005009e-14
11
43.210484220528173
21
88.000000000000369
31
1.7763568394002505e-14
0
LINE
5
120
100
AcDbEntity
8
0
100
AcDbLine
10
64.210484220528073
20
92.000000000000441
30
4.6074255521943927e-14
11
64.210484220528087
21
88.000000000000398
31
1.7763568394002505e-14
0
LINE
5
121
100
AcDbEntity
8
0
100
AcDbLine
10
58.944012695948246
20
29.000000000000146
30
1.7763568394002505e-14
11
56.94401269594826
21
29.000000000000146
31
2.1857515797307769e-14
0
LINE
5
122
100
AcDbEntity
8
0
100
AcDbLine
10
56.94401269594826
20
29.000000000000146
30
2.1857515797307769e-14
11
56.94401269594826
21
22.000000000000142
31
2.4894982889605887e-14
0
SPLINE
5
123
100
AcDbEntity
8
0
100
AcDbSpline
70
4
71
5
72
21
73
15
74
0
42
0.000000001
43
0.0000000001
44
0.0000000001
40
0
40
0
40
0
40
0
40
0
40
0
40
0.10000000000000001
40
0.20000000000000001
40
0.30000000000000004
40
0.40000000000000002
40
0.5
40
0.59999999999999998
40
0.69999999999999996
40
0.79999999999999993
40
0.89999999999999991
40
1
40
1
40
1
40
1
40
1
40
1
41
1
41
1
41
1
41
1
41
1
41
1
41
1
41
1
41
1
41
1
41
1
41
1
41
1
41
1
41
1
10
67.210484220528173
20
40.081451854585467
30
1.7763568394002505e-14
10
66.848782451842155
20
40.166276363384284
30
1.7763568394002505e-14
10
66.143415567813676
20
40.307777850511606
30
3.5527136788005009e-14
10
65.139477392279318
20
40.435584071388746
30
1.7763568394002505e-14
10
63.910878992929625
20
40.434351342780424
30
1.7763568394002505e-14
10
62.570011590858137
20
40.128684858340506
30
3.5527136788005009e-14
10
61.438237870142686
20
39.496712231893127
30
1.7763568394002505e-14
10
60.527359290345416
20
38.520016413641585
30
1.7763568394002505e-14
10
59.834746540440484
20
37.202700637740435
30
3.5527136788005009e-14
10
59.343997470135065
20
35.57036167184787
30
1.7763568394002505e-14
10
59.036080022985914
20
33.652700446522886
30
1.7763568394002505e-14
10
58.922331537477547
20
31.911662038627412
30
0
10
58.906569857364339
20
30.497345810973059
30
1.7763568394002505e-14
10
58.926464371494859
20
29.507023288583945
30
1.7763568394002505e-14
10
58.944012695948267
20
29.000000000000146
30
1.7763568394002505e-14
0
LINE
5
124
100
AcDbEntity
8
0
100
AcDbLine
10
47.339844997682633
20
22.000000000000139
30
1.7763568394002505e-14
11
56.94401269594826
21
22.000000000000142
31
2.4894982889605887e-14
0
LINE
5
125
100
AcDbEntity
8
0
100
AcDbLine
10
47.339844997682633
20
22.000000000000139
30
1.7763568394002505e-14
11
47.339844997682654
21
29.000000000000142
31
2.8395722292401627e-14
0
LINE
5
126
100
AcDbEntity
8
0
100
AcDbLine
10
47.339844997682654
20
29.000000000000142
30
2.8395722292401627e-14
11
45.339844997682633
21
29.000000000000142
31
1.9567680809018384e-14
0
SPLINE
5
127
100
AcDbEntity
8
0
100
AcDbSpline
70
4
71
5
72
21
73
15
74
0
42
0.000000001
43
0.0000000001
44
0.0000000001
40
-1
40
-1
40
-1
40
-1
40
-1
40
-1
40
-0.89999999999999991
40
-0.79999999999999993
40
-0.69999999999999996
40
-0.59999999999999998
40
-0.5
40
-0.40000000000000002
40
-0.30000000000000004
40
-0.20000000000000001
40
-0.10000000000000001
40
0
40
0
40
0
40
0
40
0
40
0
41
1
41
1
41
1
41
1
41
1
41
1
41
1
41
1
41
1
41
1
41
1
41
1
41
1
41
1
41
1
10
45.339844997682619
20
29.000000000000142
30
1.7763568394002505e-14
10
45.540828552112416
20
29.296515519916312
30
1.7763568394002505e-14
10
45.919376186216638
20
29.889808029806858
30
0
10
46.416948075457363
20
30.780521960005565
30
1.7763568394002505e-14
10
46.937489433403776
20
31.96979774760301
30
0
10
47.335915040219035
20
33.452698903620039
30
1.7763568394002505e-14
10
47.464533824268891
20
34.913438505308854
30
1.7763568394002505e-14
10
47.313209124639727
20
36.311389267263159
30
1.7763568394002505e-14
10
46.886773902020053
20
37.58256041383757
30
3.5527136788005009e-14
10
46.234652071036599
20
38.612837454483923
30
1.7763568394002505e-14
10
45.395342460409729
20
39.358656100696955
30
1.7763568394002505e-14
10
44.59478003633383
20
39.720891678007206
30
3.5527136788005009e-14
10
43.928016289234918
20
39.864325856162864
30
1.7763568394002505e-14
10
43.454496579611259
20
39.903859334244594
30
1.7763568394002505e-14
10
43.210484220528187
20
39.909604666000014
30
1.7763568394002505e-14
0
ENDSEC
0
SECTION
2
OBJECTS
0
DICTIONARY
5
C
100
AcDbDictionary
3
ACAD_GROUP
350
D
3
ACAD_MLINESTYLE
350
17
0
DICTIONARY
5
D
100
AcDbDictionary
0
DICTIONARY
5
1A
330
C
100
AcDbDictionary
0
DICTIONARY
5
17
100
AcDbDictionary
0
ENDSEC
0
EOF
