0
SECTION
2
HEADER
9
$INSUNITS
70
4
9
$ACADVER
1
AC1014
9
$HANDSEED
5
FFFF
0
ENDSEC
0
SECTION
2
TABLES
0
TABLE
2
VPORT
5
8
100
AcDbSymbolTable
0
ENDTAB
0
TABLE
2
LTYPE
5
5
100
AcDbSymbolTable
0
LTYPE
5
14
100
AcDbSymbolTableRecord
100
AcDbLinetypeTableRecord
2
BYBLOCK
70
0
0
LTYPE
5
15
100
AcDbSymbolTableRecord
100
AcDbLinetypeTableRecord
2
BYLAYER
70
0
0
ENDTAB
0
TABLE
2
LAYER
5
2
100
AcDbSymbolTable
70
2
0
LAYER
5
50
100
AcDbSymbolTableRecord
100
AcDbLayerTableRecord
2
0
70
0
6
CONTINUOUS
0
ENDTAB
0
TABLE
2
STYLE
5
3
100
AcDbSymbolTable
70
1
0
STYLE
5
11
100
AcDbSymbolTableRecord
100
AcDbTextStyleTableRecord
2
STANDARD
70
0
0
ENDTAB
0
TABLE
2
VIEW
5
6
100
AcDbSymbolTable
70
0
0
ENDTAB
0
TABLE
2
UCS
5
7
100
AcDbSymbolTable
70
0
0
ENDTAB
0
TABLE
2
APPID
5
9
100
AcDbSymbolTable
70
2
0
APPID
5
12
100
AcDbSymbolTableRecord
100
AcDbRegAppTableRecord
2
ACAD
70
0
0
ENDTAB
0
TABLE
2
DIMSTYLE
5
A
100
AcDbSymbolTable
70
1
0
ENDTAB
0
TABLE
2
BLOCK_RECORD
5
1
100
AcDbSymbolTable
70
1
0
BLOCK_RECORD
5
1F
100
AcDbSymbolTableRecord
100
AcDbBlockTableRecord
2
*MODEL_SPACE
0
BLOCK_RECORD
5
1B
100
AcDbSymbolTableRecord
100
AcDbBlockTableRecord
2
*PAPER_SPACE
0
ENDTAB
0
ENDSEC
0
SECTION
2
BLOCKS
0
BLOCK
5
20
100
AcDbEntity
100
AcDbBlockBegin
2
*MODEL_SPACE
0
ENDBLK
5
21
100
AcDbEntity
100
AcDbBlockEnd
0
BLOCK
5
1C
100
AcDbEntity
100
AcDbBlockBegin
2
*PAPER_SPACE
0
ENDBLK
5
1D
100
AcDbEntity
100
AcDbBlockEnd
0
ENDSEC
0
SECTION
2
ENTITIES
0
LINE
5
100
100
AcDbEntity
8
0
100
AcDbLine
10
-72.167722927436756
20
92.000000000000014
30
0
11
-90.167722996937286
21
92.000000000000014
31
0
0
LINE
5
101
100
AcDbEntity
8
0
100
AcDbLine
10
-90.167722996937286
20
92.000000000000014
30
0
11
-90.167722996937286
21
88
31
0
0
LINE
5
102
100
AcDbEntity
8
0
100
AcDbLine
10
-90.167722996937286
20
88
30
0
11
-93.16772292743677
21
88
31
-1.3877787807814457e-16
0
LINE
5
103
100
AcDbEntity
8
0
100
AcDbLine
10
-93.16772292743677
20
88
30
-1.3877787807814457e-16
11
-93.167722927436756
21
40.08145185458531
31
0
0
SPLINE
5
104
100
AcDbEntity
8
0
100
AcDbSpline
70
4
71
5
72
21
73
15
74
0
42
0.000000001
43
0.0000000001
44
0.0000000001
40
0
40
0
40
0
40
0
40
0
40
0
40
0.10000000000000001
40
0.20000000000000001
40
0.30000000000000004
40
0.40000000000000002
40
0.5
40
0.59999999999999998
40
0.69999999999999996
40
0.79999999999999993
40
0.89999999999999991
40
1
40
1
40
1
40
1
40
1
40
1
41
1
41
1
41
1
41
1
41
1
41
1
41
1
41
1
41
1
41
1
41
1
41
1
41
1
41
1
41
1
10
-93.167722927436756
20
40.08145185458531
30
0
10
-92.806021158750752
20
40.166276363384128
30
0
10
-92.100654274722245
20
40.307777850511442
30
2.2204460492503131e-15
10
-91.096716099187901
20
40.43558407138859
30
0
10
-89.868117699838194
20
40.434351342780268
30
4.4408920985006262e-15
10
-88.527250297766713
20
40.128684858340343
30
0
10
-87.395476577051255
20
39.496712231892978
30
4.4408920985006262e-15
10
-86.484597997254014
20
38.520016413641436
30
-2.2204460492503131e-15
10
-85.791985247349061
20
37.202700637740286
30
0
10
-85.301236177043634
20
35.570361671847721
30
4.4408920985006262e-15
10
-84.993318729894497
20
33.652700446522729
30
0
10
-84.879570244386144
20
31.911662038627263
30
-2.2204460492503131e-15
10
-84.863808564272915
20
30.497345810972906
30
-4.4408920985006262e-15
10
-84.883703078403428
20
29.507023288583799
30
0
10
-84.901251402856829
20
29
30
0
0
LINE
5
105
100
AcDbEntity
8
0
100
AcDbLine
10
-84.901251402856815
20
28.999999999999993
30
-5.8378079622773296e-31
11
-82.901251402856815
21
29
31
-6.9388939039072284e-17
0
LINE
5
106
100
AcDbEntity
8
0
100
AcDbLine
10
-82.901251402856815
20
29
30
-6.9388939039072284e-17
11
-82.901251402856829
21
21.999999999999996
31
-2.2204460492503131e-15
0
LINE
5
107
100
AcDbEntity
8
0
100
AcDbLine
10
-82.901251402856829
20
21.999999999999996
30
-2.2204460492503131e-15
11
-73.297083704591216
21
21.999999999999996
31
-2.2204460492503131e-15
0
LINE
5
108
100
AcDbEntity
8
0
100
AcDbLine
10
-73.297083704591216
20
21.999999999999996
30
-2.2204460492503131e-15
11
-73.297083704591216
21
29
31
2.2204460492503131e-15
0
LINE
5
109
100
AcDbEntity
8
0
100
AcDbLine
10
-73.297083704591216
20
29
30
2.2204460492503131e-15
11
-71.297083704591216
21
29
31
2.1510571102112408e-15
0
SPLINE
5
110
100
AcDbEntity
8
0
100
AcDbSpline
70
4
71
5
72
21
73
15
74
0
42
0.000000001
43
0.0000000001
44
0.0000000001
40
-1
40
-1
40
-1
40
-1
40
-1
40
-1
40
-0.89999999999999991
40
-0.79999999999999993
40
-0.69999999999999996
40
-0.59999999999999998
40
-0.5
40
-0.40000000000000002
40
-0.30000000000000004
40
-0.20000000000000001
40
-0.10000000000000001
40
0
40
0
40
0
40
0
40
0
40
0
41
1
41
1
41
1
41
1
41
1
41
1
41
1
41
1
41
1
41
1
41
1
41
1
41
1
41
1
41
1
10
-71.297083704591216
20
29
30
2.2204460492503131e-15
10
-71.498067259020999
20
29.29651551991617
30
2.2204460492503131e-15
10
-71.876614893125222
20
29.889808029806716
30
0
10
-72.374186782365939
20
30.780521960005419
30
4.4408920985006262e-15
10
-72.894728140312338
20
31.969797747602865
30
0
10
-73.293153747127619
20
33.45269890361989
30
2.2204460492503131e-15
10
-73.421772531177467
20
34.913438505308704
30
2.2204460492503131e-15
10
-73.27044783154831
20
36.311389267263017
30
0
10
-72.844012608928651
20
37.582560413837427
30
2.2204460492503131e-15
10
-72.19189077794519
20
38.612837454483781
30
2.2204460492503131e-15
10
-71.35258116731832
20
39.358656100696805
30
0
10
-70.552018743242414
20
39.720891678007064
30
0
10
-69.885254996143516
20
39.864325856162722
30
2.2204460492503131e-15
10
-69.411735286519857
20
39.903859334244444
30
2.2204460492503131e-15
10
-69.167722927436756
20
39.909604665999865
30
2.2204460492503131e-15
0
LINE
5
111
100
AcDbEntity
8
0
100
AcDbLine
10
-69.167722927436756
20
39.909604665999865
30
2.2204460492503135e-15
11
-69.167722927436742
21
88
31
2.2204460492503131e-15
0
LINE
5
112
100
AcDbEntity
8
0
100
AcDbLine
10
-69.167722927436742
20
88
30
2.2204460492503131e-15
11
-72.167722927436742
21
88
31
2.3592239273284576e-15
0
LINE
5
113
100
AcDbEntity
8
0
100
AcDbLine
10
-72.167722927436742
20
88
30
2.3592239273284576e-15
11
-72.167722927436756
21
92.000000000000014
31
0
0
LINE
5
114
100
AcDbEntity
8
0
100
AcDbLine
10
-90.167722996937286
20
92.000000000000014
30
0
11
-72.167722996937286
21
92.000000000000014
31
1.6653345369377348e-15
0
LINE
5
115
100
AcDbEntity
8
0
100
AcDbLine
10
-72.167722996937286
20
92.000000000000014
30
1.6653345369377348e-15
11
-72.167722996937272
21
88
31
0
0
LINE
5
116
100
AcDbEntity
8
0
100
AcDbLine
10
-72.167722996937272
20
88
30
0
11
-69.167722927436756
21
88
31
2.6367796834847468e-15
0
LINE
5
117
100
AcDbEntity
8
0
100
AcDbLine
10
-69.167722927436742
20
39.909604665999865
30
0
11
-69.167722927436756
21
88
31
2.6367796834847468e-15
0
SPLINE
5
118
100
AcDbEntity
8
0
100
AcDbSpline
70
0
71
3
72
18
73
14
74
0
42
0.000000001
43
0.0000000001
44
0.0000000001
40
0
40
0
40
0
40
0
40
0.16765515946172424
40
0.16765515946172424
40
0.31418200573749577
40
0.31418200573749577
40
0.47682225116066657
40
0.47682225116066657
40
0.66771297869652091
40
0.66771297869652091
40
0.8302345139355447
40
0.8302345139355447
40
0.99918431826387588
40
0.99918431826387588
40
0.99918431826387588
40
0.99918431826387588
10
-69.167722927436756
20
39.909604665999865
30
2.2204460492503131e-15
10
-69.726418615924359
20
39.896450036895239
30
4.4408920985006262e-15
10
-70.274828720121945
20
39.794257000538302
30
6.6613381477509392e-15
10
-71.233797100038217
20
39.373372974451648
30
2.2204460492503131e-15
10
-71.626849744345634
20
39.094920089321846
30
0
10
-72.339750157927469
20
38.352301973035587
30
4.4408920985006262e-15
10
-72.630739291405163
20
37.88765552138225
30
-2.2204460492503131e-15
10
-73.100486880035817
20
36.809253756524328
30
2.2204460492503131e-15
10
-73.294900352169307
20
36.082836471361247
30
0
10
-73.381123515451506
20
34.50659849165217
30
4.4408920985006262e-15
10
-73.32311429231288
20
33.551519102772446
30
2.2204460492503131e-15
10
-72.604314902197473
20
31.187010261550473
30
4.4408920985006262e-15
10
-72.004021645121256
20
30.042961308846596
30
2.2204460492503131e-15
10
-71.297083704591216
20
29
30
2.2204460492503131e-15
0
LINE
5
119
100
AcDbEntity
8
0
100
AcDbLine
10
-71.297083704591216
20
29.000000000000004
30
2.2204460492503127e-15
11
-73.297083704591216
21
29
31
2.2898349882893854e-15
0
LINE
5
120
100
AcDbEntity
8
0
100
AcDbLine
10
-73.297083704591216
20
29
30
2.2898349882893854e-15
11
-73.297083704591216
21
21.999999999999996
31
8.8817841970012523e-15
0
LINE
5
121
100
AcDbEntity
8
0
100
AcDbLine
10
-82.901251402856829
20
21.999999999999996
30
-2.2204460492503131e-15
11
-73.297083704591216
21
21.999999999999996
31
8.8817841970012523e-15
0
LINE
5
122
100
AcDbEntity
8
0
100
AcDbLine
10
-82.901251402856829
20
21.999999999999996
30
-2.2204460492503131e-15
11
-82.901251402856815
21
29
31
2.2204460492503131e-15
0
LINE
5
123
100
AcDbEntity
8
0
100
AcDbLine
10
-82.901251402856815
20
29
30
2.2204460492503131e-15
11
-84.901251402856829
21
29
31
6.9388939039072284e-17
0
SPLINE
5
124
100
AcDbEntity
8
0
100
AcDbSpline
70
0
71
3
72
18
73
14
74
0
42
0.000000001
43
0.0000000001
44
0.0000000001
40
0
40
0
40
0
40
0
40
0.62999641464136902
40
0.62999641464136902
40
0.98597801185255673
40
0.98597801185255673
40
1.2886030715211196
40
1.2886030715211196
40
1.561700117821067
40
1.561700117821067
40
1.8705147563922968
40
1.8705147563922968
40
2.2306481545301375
40
2.2306481545301375
40
2.2306481545301375
40
2.2306481545301375
10
-84.901251402856829
20
29
30
0
10
-84.828613280592435
20
31.098731404519381
30
-2.2204460492503131e-15
10
-84.891052054024328
20
33.566298701023932
30
0
10
-85.647144509008811
20
36.775517529041693
30
2.2204460492503131e-15
10
-86.006636563839578
20
37.602455689583387
30
0
10
-86.719448996663445
20
38.733143785946758
30
0
10
-87.121909512808799
20
39.185008211981739
30
0
10
-88.076816854348749
20
39.860741452947906
30
4.4408920985006262e-15
10
-88.578231013407446
20
40.079478072508763
30
0
10
-89.722626976459438
20
40.370312227070777
30
2.2204460492503131e-15
10
-90.359427171059565
20
40.415254045434985
30
-4.4408920985006262e-15
10
-91.714649178077948
20
40.366785155689371
30
-2.2204460492503131e-15
10
-92.456828414760992
20
40.248167317615966
30
0
10
-93.167722927436756
20
40.08145185458531
30
2.2204460492503131e-15
0
LINE
5
125
100
AcDbEntity
8
0
100
AcDbLine
10
-93.167722927436756
20
40.081451854585318
30
2.2204460492503131e-15
11
-93.1677229969373
21
88
31
2.2204460492503131e-15
0
LINE
5
126
100
AcDbEntity
8
0
100
AcDbLine
10
-93.1677229969373
20
88
30
2.2204460492503131e-15
11
-90.167722996937286
21
88
31
2.7755575615628914e-15
0
LINE
5
127
100
AcDbEntity
8
0
100
AcDbLine
10
-90.167722996937286
20
88
30
2.7755575615628914e-15
11
-90.167722996937286
21
92.000000000000014
31
0
0
ENDSEC
0
SECTION
2
OBJECTS
0
DICTIONARY
5
C
100
AcDbDictionary
3
ACAD_GROUP
350
D
3
ACAD_MLINESTYLE
350
17
0
DICTIONARY
5
D
100
AcDbDictionary
0
DICTIONARY
5
1A
330
C
100
AcDbDictionary
0
DICTIONARY
5
17
100
AcDbDictionary
0
ENDSEC
0
EOF
