0
SECTION
2
HEADER
9
$INSUNITS
70
4
9
$ACADVER
1
AC1014
9
$HANDSEED
5
FFFF
0
ENDSEC
0
SECTION
2
TABLES
0
TABLE
2
VPORT
5
8
100
AcDbSymbolTable
0
ENDTAB
0
TABLE
2
LTYPE
5
5
100
AcDbSymbolTable
0
LTYPE
5
14
100
AcDbSymbolTableRecord
100
AcDbLinetypeTableRecord
2
BYBLOCK
70
0
0
LTYPE
5
15
100
AcDbSymbolTableRecord
100
AcDbLinetypeTableRecord
2
BYLAYER
70
0
0
ENDTAB
0
TABLE
2
LAYER
5
2
100
AcDbSymbolTable
70
2
0
LAYER
5
50
100
AcDbSymbolTableRecord
100
AcDbLayerTableRecord
2
0
70
0
6
CONTINUOUS
0
ENDTAB
0
TABLE
2
STYLE
5
3
100
AcDbSymbolTable
70
1
0
STYLE
5
11
100
AcDbSymbolTableRecord
100
AcDbTextStyleTableRecord
2
STANDARD
70
0
0
ENDTAB
0
TABLE
2
VIEW
5
6
100
AcDbSymbolTable
70
0
0
ENDTAB
0
TABLE
2
UCS
5
7
100
AcDbSymbolTable
70
0
0
ENDTAB
0
TABLE
2
APPID
5
9
100
AcDbSymbolTable
70
2
0
APPID
5
12
100
AcDbSymbolTableRecord
100
AcDbRegAppTableRecord
2
ACAD
70
0
0
ENDTAB
0
TABLE
2
DIMSTYLE
5
A
100
AcDbSymbolTable
70
1
0
ENDTAB
0
TABLE
2
BLOCK_RECORD
5
1
100
AcDbSymbolTable
70
1
0
BLOCK_RECORD
5
1F
100
AcDbSymbolTableRecord
100
AcDbBlockTableRecord
2
*MODEL_SPACE
0
BLOCK_RECORD
5
1B
100
AcDbSymbolTableRecord
100
AcDbBlockTableRecord
2
*PAPER_SPACE
0
ENDTAB
0
ENDSEC
0
SECTION
2
BLOCKS
0
BLOCK
5
20
100
AcDbEntity
100
AcDbBlockBegin
2
*MODEL_SPACE
0
ENDBLK
5
21
100
AcDbEntity
100
AcDbBlockEnd
0
BLOCK
5
1C
100
AcDbEntity
100
AcDbBlockBegin
2
*PAPER_SPACE
0
ENDBLK
5
1D
100
AcDbEntity
100
AcDbBlockEnd
0
ENDSEC
0
SECTION
2
ENTITIES
0
LINE
5
100
100
AcDbEntity
8
0
100
AcDbLine
10
-18.622709336612139
20
87.99999999999946
30
0
11
-21.622709336611695
21
87.999999999998778
31
-4.9607019885116422e-28
0
LINE
5
101
100
AcDbEntity
8
0
100
AcDbLine
10
-21.622709336611695
20
87.999999999998778
30
-4.9607019885116422e-28
11
-21.622709336611688
21
91.999999999998764
31
-1.9721522630525295e-30
0
LINE
5
102
100
AcDbEntity
8
0
100
AcDbLine
10
-21.622709336611688
20
91.999999999998764
30
-1.9721522630525295e-30
11
-37.622709336611507
21
91.999999999998778
31
1.5330669704558619e-29
0
LINE
5
103
100
AcDbEntity
8
0
100
AcDbLine
10
-37.622709336611507
20
91.999999999998778
30
1.5330669704558619e-29
11
-37.622709336611507
21
87.999999999998806
31
1.9721522630525295e-30
0
LINE
5
104
100
AcDbEntity
8
0
100
AcDbLine
10
-37.622709336611507
20
87.999999999998806
30
1.9721522630525295e-30
11
-40.622709336611969
21
87.999999999999474
31
1.7763568394003006e-14
0
LINE
5
105
100
AcDbEntity
8
0
100
AcDbLine
10
-40.622709336611969
20
87.999999999999474
30
1.7763568394003006e-14
11
-40.622709336612004
21
21.999999999999726
31
1.776356839400253e-14
0
LINE
5
106
100
AcDbEntity
8
0
100
AcDbLine
10
-40.622709336612004
20
21.999999999999726
30
1.776356839400253e-14
11
-31.622709336612104
21
21.999999999999766
31
-2.7755575615626823e-16
0
LINE
5
107
100
AcDbEntity
8
0
100
AcDbLine
10
-31.622709336612104
20
21.999999999999766
30
-2.7755575615626823e-16
11
-31.6227093366121
21
28.999999999999741
31
1.7763568394002501e-14
0
LINE
5
108
100
AcDbEntity
8
0
100
AcDbLine
10
-31.6227093366121
20
28.999999999999741
30
1.7763568394002501e-14
11
-29.622709336612122
21
28.999999999999737
31
-1.9163337130698378e-30
0
SPLINE
5
109
100
AcDbEntity
8
0
100
AcDbSpline
70
0
71
3
72
14
73
10
74
0
42
0.000000001
43
0.0000000001
44
0.0000000001
40
0
40
0
40
0
40
0
40
0.69492490063287282
40
0.69492490063287282
40
1.254610281560006
40
1.254610281560006
40
1.764234724008737
40
1.764234724008737
40
2.3166206649619117
40
2.3166206649619117
40
2.3166206649619117
40
2.3166206649619117
10
-29.622709336612107
20
28.999999999999741
30
1.7763568394002505e-14
10
-29.171835317285357
20
31.272112950053685
30
0
10
-28.495716522310076
20
33.223632549341914
30
0
10
-26.799470718784285
20
36.095603635579977
30
1.7763568394002505e-14
10
-25.931003304390266
20
37.034539006858658
30
0
10
-24.094119249787415
20
38.411112054504073
30
0
10
-23.120793209915796
20
38.89920427315375
30
0
10
-20.977944297432064
20
39.65075004366993
30
1.7763568394002505e-14
10
-19.79571801107604
20
39.892898404398579
30
1.7763568394002505e-14
10
-18.622709336612203
20
40.026173048836675
30
0
0
LINE
5
110
100
AcDbEntity
8
0
100
AcDbLine
10
-18.622709336612203
20
40.026173048836682
30
3.3966673338338032e-31
11
-18.622709336612139
21
87.99999999999946
31
0
0
LINE
5
111
100
AcDbEntity
8
0
100
AcDbLine
10
-21.622709320303972
20
91.999999999999147
30
-1.7763568394002505e-14
11
-21.622709320303983
21
87.999999999999133
31
-1.842143452744773e-14
0
LINE
5
112
100
AcDbEntity
8
0
100
AcDbLine
10
-21.622709320303983
20
87.999999999999133
30
-1.842143452744773e-14
11
-18.622709320304384
21
87.999999999999119
31
1.8457457784393227e-14
0
LINE
5
113
100
AcDbEntity
8
0
100
AcDbLine
10
-37.622709320303919
20
87.999999999999147
30
-1.7763568394002505e-14
11
-37.622709320303912
21
91.999999999999162
31
-1.710570226055728e-14
0
LINE
5
114
100
AcDbEntity
8
0
100
AcDbLine
10
-40.622709320304402
20
87.999999999999147
30
1.7763568394002505e-14
11
-37.622709320303919
21
87.999999999999147
31
-1.7763568394002505e-14
0
LINE
5
115
100
AcDbEntity
8
0
100
AcDbLine
10
-37.622709320303912
20
91.999999999999162
30
-1.710570226055728e-14
11
-21.622709320303972
21
91.999999999999147
31
-1.7763568394002505e-14
0
LINE
5
116
100
AcDbEntity
8
0
100
AcDbLine
10
-18.622709320304459
20
40.026173048836824
30
1.7763568394002505e-14
11
-18.622709320304384
21
87.999999999999119
31
1.8457457784393227e-14
0
SPLINE
5
117
100
AcDbEntity
8
0
100
AcDbSpline
70
4
71
5
72
21
73
15
74
0
42
0.000000001
43
0.0000000001
44
0.0000000001
40
0
40
0
40
0
40
0
40
0
40
0
40
0.10000000000000001
40
0.20000000000000001
40
0.30000000000000004
40
0.40000000000000002
40
0.5
40
0.59999999999999998
40
0.69999999999999996
40
0.79999999999999993
40
0.89999999999999991
40
1
40
1
40
1
40
1
40
1
40
1
41
1
41
1
41
1
41
1
41
1
41
1
41
1
41
1
41
1
41
1
41
1
41
1
41
1
41
1
41
1
10
-18.622709320304487
20
40.026173048836817
30
0
10
-18.986535929568504
20
39.984835876280165
30
1.7763568394002505e-14
10
-19.701471941126574
20
39.886317807064067
30
1.7763568394002505e-14
10
-20.73572467094256
20
39.69100994628409
30
1.7763568394002505e-14
10
-22.037167545399058
20
39.333970435811651
30
0
10
-23.526067917736448
20
38.715864409091225
30
1.7763568394002505e-14
10
-24.86528526701402
20
37.911275884602674
30
1.7763568394002505e-14
10
-26.043447251548265
20
36.906036637786663
30
1.7763568394002505e-14
10
-27.0559153726105
20
35.694367797986779
30
1.7763568394002505e-14
10
-27.910977791768047
20
34.286595165940831
30
0
10
-28.621250947507146
20
32.698436923394944
30
0
10
-29.083506371191593
20
31.29589626838932
30
0
10
-29.374437283893954
20
30.174521400963009
30
0
10
-29.544014894955811
20
29.396568920069271
30
0
10
-29.622709320304502
20
28.999999999999847
30
-1.7763568394002505e-14
0
LINE
5
118
100
AcDbEntity
8
0
100
AcDbLine
10
-29.622709320304509
20
28.999999999999847
30
-1.7763568394002505e-14
11
-31.622709320304505
21
28.999999999999851
31
-2.8588242884097781e-14
0
LINE
5
119
100
AcDbEntity
8
0
100
AcDbLine
10
-31.622709320304505
20
28.999999999999851
30
-2.8588242884097781e-14
11
-31.622709320304505
21
21.999999999999847
31
-2.875346885803644e-15
0
LINE
5
120
100
AcDbEntity
8
0
100
AcDbLine
10
-40.622709320304494
20
21.999999999999829
30
0
11
-31.622709320304505
21
21.999999999999847
31
-2.875346885803644e-15
0
LINE
5
121
100
AcDbEntity
8
0
100
AcDbLine
10
-40.622709320304494
20
21.999999999999829
30
0
11
-40.622709320304402
21
87.999999999999147
31
1.7763568394002505e-14
0
ENDSEC
0
SECTION
2
OBJECTS
0
DICTIONARY
5
C
100
AcDbDictionary
3
ACAD_GROUP
350
D
3
ACAD_MLINESTYLE
350
17
0
DICTIONARY
5
D
100
AcDbDictionary
0
DICTIONARY
5
1A
330
C
100
AcDbDictionary
0
DICTIONARY
5
17
100
AcDbDictionary
0
ENDSEC
0
EOF
