0
SECTION
2
HEADER
9
$INSUNITS
70
4
9
$ACADVER
1
AC1014
9
$HANDSEED
5
FFFF
0
ENDSEC
0
SECTION
2
TABLES
0
TABLE
2
VPORT
5
8
100
AcDbSymbolTable
0
ENDTAB
0
TABLE
2
LTYPE
5
5
100
AcDbSymbolTable
0
LTYPE
5
14
100
AcDbSymbolTableRecord
100
AcDbLinetypeTableRecord
2
BYBLOCK
70
0
0
LTYPE
5
15
100
AcDbSymbolTableRecord
100
AcDbLinetypeTableRecord
2
BYLAYER
70
0
0
ENDTAB
0
TABLE
2
LAYER
5
2
100
AcDbSymbolTable
70
2
0
LAYER
5
50
100
AcDbSymbolTableRecord
100
AcDbLayerTableRecord
2
0
70
0
6
CONTINUOUS
0
ENDTAB
0
TABLE
2
STYLE
5
3
100
AcDbSymbolTable
70
1
0
STYLE
5
11
100
AcDbSymbolTableRecord
100
AcDbTextStyleTableRecord
2
STANDARD
70
0
0
ENDTAB
0
TABLE
2
VIEW
5
6
100
AcDbSymbolTable
70
0
0
ENDTAB
0
TABLE
2
UCS
5
7
100
AcDbSymbolTable
70
0
0
ENDTAB
0
TABLE
2
APPID
5
9
100
AcDbSymbolTable
70
2
0
APPID
5
12
100
AcDbSymbolTableRecord
100
AcDbRegAppTableRecord
2
ACAD
70
0
0
ENDTAB
0
TABLE
2
DIMSTYLE
5
A
100
AcDbSymbolTable
70
1
0
ENDTAB
0
TABLE
2
BLOCK_RECORD
5
1
100
AcDbSymbolTable
70
1
0
BLOCK_RECORD
5
1F
100
AcDbSymbolTableRecord
100
AcDbBlockTableRecord
2
*MODEL_SPACE
0
BLOCK_RECORD
5
1B
100
AcDbSymbolTableRecord
100
AcDbBlockTableRecord
2
*PAPER_SPACE
0
ENDTAB
0
ENDSEC
0
SECTION
2
BLOCKS
0
BLOCK
5
20
100
AcDbEntity
100
AcDbBlockBegin
2
*MODEL_SPACE
0
ENDBLK
5
21
100
AcDbEntity
100
AcDbBlockEnd
0
BLOCK
5
1C
100
AcDbEntity
100
AcDbBlockBegin
2
*PAPER_SPACE
0
ENDBLK
5
1D
100
AcDbEntity
100
AcDbBlockEnd
0
ENDSEC
0
SECTION
2
ENTITIES
0
LINE
5
100
100
AcDbEntity
8
0
100
AcDbLine
10
-74.95587270785667
20
88.000000000000043
30
0
11
-77.955872707856656
21
88.000000000000043
31
-2.7755575615629264e-16
0
LINE
5
101
100
AcDbEntity
8
0
100
AcDbLine
10
-77.955872707856656
20
88.000000000000043
30
-2.7755575615629264e-16
11
-77.95587270785667
21
40.026173048837066
31
-1.7763568394002568e-14
0
SPLINE
5
102
100
AcDbEntity
8
0
100
AcDbSpline
70
4
71
5
72
21
73
15
74
0
42
0.000000001
43
0.0000000001
44
0.0000000001
40
0
40
0
40
0
40
0
40
0
40
0
40
0.10000000000000001
40
0.20000000000000001
40
0.30000000000000004
40
0.40000000000000002
40
0.5
40
0.59999999999999998
40
0.69999999999999996
40
0.79999999999999993
40
0.89999999999999991
40
1
40
1
40
1
40
1
40
1
40
1
41
1
41
1
41
1
41
1
41
1
41
1
41
1
41
1
41
1
41
1
41
1
41
1
41
1
41
1
41
1
10
-77.95587270785667
20
40.026173048837066
30
-1.7763568394002505e-14
10
-77.592046098592647
20
39.984835876280393
30
0
10
-76.877110087034595
20
39.886317807064302
30
-1.7763568394002505e-14
10
-75.84285735721862
20
39.691009946284325
30
0
10
-74.541414482762121
20
39.333970435811878
30
0
10
-73.052514110424738
20
38.715864409091452
30
-1.7763568394002505e-14
10
-71.713296761147177
20
37.911275884602894
30
0
10
-70.535134776612921
20
36.906036637786876
30
1.7763568394002505e-14
10
-69.522666655550694
20
35.694367797986999
30
0
10
-68.66760423639316
20
34.286595165941051
30
0
10
-67.957331080654058
20
32.698436923395157
30
0
10
-67.495075656969604
20
31.295896268389534
30
0
10
-67.204144744267296
20
30.174521400963222
30
1.7763568394002505e-14
10
-67.0345671332054
20
29.396568920069484
30
0
10
-66.955872707856741
20
29.00000000000006
30
0
0
LINE
5
103
100
AcDbEntity
8
0
100
AcDbLine
10
-66.955872707856741
20
29.00000000000006
30
-1.5019812106924672e-29
11
-64.955872707856741
21
29.00000000000006
31
1.3877787807814691e-16
0
LINE
5
104
100
AcDbEntity
8
0
100
AcDbLine
10
-64.955872707856741
20
29.00000000000006
30
1.3877787807814691e-16
11
-64.955872707856756
21
22.00000000000006
31
-1.1832913578315177e-29
0
LINE
5
105
100
AcDbEntity
8
0
100
AcDbLine
10
-64.955872707856756
20
22.00000000000006
30
-1.1832913578315177e-29
11
-55.955872707856798
21
22.000000000000025
31
2.7755575615637907e-16
0
LINE
5
106
100
AcDbEntity
8
0
100
AcDbLine
10
-55.955872707856798
20
22.000000000000025
30
2.7755575615637907e-16
11
-55.955872707856727
21
88.000000000000043
31
9.4663308626521417e-29
0
LINE
5
107
100
AcDbEntity
8
0
100
AcDbLine
10
-55.955872707856727
20
88.000000000000043
30
9.4663308626521417e-29
11
-58.955872707856827
21
88.000000000000028
31
-1.7902346272080605e-14
0
LINE
5
108
100
AcDbEntity
8
0
100
AcDbLine
10
-58.955872707856827
20
88.000000000000028
30
-1.7902346272080605e-14
11
-58.955872707856834
21
92.000000000000028
31
-1.7763568394002498e-14
0
LINE
5
109
100
AcDbEntity
8
0
100
AcDbLine
10
-58.955872707856834
20
92.000000000000028
30
-1.7763568394002498e-14
11
-74.95587270785667
21
92.000000000000043
31
-5.5511151231264246e-16
0
LINE
5
110
100
AcDbEntity
8
0
100
AcDbLine
10
-74.95587270785667
20
92.000000000000043
30
-5.5511151231264246e-16
11
-74.95587270785667
21
88.000000000000043
31
0
0
LINE
5
111
100
AcDbEntity
8
0
100
AcDbLine
10
-74.955872708871013
20
88.000000000000028
30
-1.7763568394002505e-14
11
-74.955872708871013
21
92.000000000000043
31
-8.5147158473838513e-15
0
LINE
5
112
100
AcDbEntity
8
0
100
AcDbLine
10
-77.955872708870984
20
88.000000000000028
30
0
11
-74.955872708871013
21
88.000000000000028
31
-1.7763568394002505e-14
0
LINE
5
113
100
AcDbEntity
8
0
100
AcDbLine
10
-58.955872708871091
20
92.000000000000028
30
0
11
-58.955872708871091
21
88.000000000000028
31
-8.0994650953687285e-15
0
LINE
5
114
100
AcDbEntity
8
0
100
AcDbLine
10
-58.955872708871091
20
88.000000000000028
30
-8.0994650953687285e-15
11
-55.95587270887097
21
88
31
-1.4155343563970746e-14
0
LINE
5
115
100
AcDbEntity
8
0
100
AcDbLine
10
-74.955872708871013
20
92.000000000000043
30
-8.5147158473838513e-15
11
-58.955872708871091
21
92.000000000000028
31
0
0
LINE
5
116
100
AcDbEntity
8
0
100
AcDbLine
10
-55.955872708871006
20
22.000000000000025
30
0
11
-55.95587270887097
21
88
31
-1.4155343563970746e-14
0
LINE
5
117
100
AcDbEntity
8
0
100
AcDbLine
10
-64.95587270887097
20
22.000000000000028
30
-1.7763568394002505e-14
11
-55.955872708871006
21
22.000000000000025
31
0
0
LINE
5
118
100
AcDbEntity
8
0
100
AcDbLine
10
-64.95587270887097
20
22.000000000000028
30
-1.7763568394002505e-14
11
-64.95587270887097
21
29.000000000000071
31
-1.6170874724283183e-14
0
LINE
5
119
100
AcDbEntity
8
0
100
AcDbLine
10
-64.95587270887097
20
29.000000000000071
30
-1.6170874724283183e-14
11
-66.95587270887097
21
29.000000000000078
31
1.0269562977782685e-14
0
SPLINE
5
120
100
AcDbEntity
8
0
100
AcDbSpline
70
0
71
3
72
14
73
10
74
0
42
0.000000001
43
0.0000000001
44
0.0000000001
40
0
40
0
40
0
40
0
40
0.69492490063287282
40
0.69492490063287282
40
1.254610281560006
40
1.254610281560006
40
1.764234724008737
40
1.764234724008737
40
2.3166206649619117
40
2.3166206649619117
40
2.3166206649619117
40
2.3166206649619117
10
-66.95587270887097
20
29.000000000000071
30
0
10
-67.406746728197731
20
31.272112950054026
30
1.7763568394002505e-14
10
-68.082865523173027
20
33.223632549342263
30
0
10
-69.779111326698839
20
36.095603635580346
30
0
10
-70.647578741092843
20
37.034539006859035
30
0
10
-72.484462795695705
20
38.41111205450445
30
-1.7763568394002505e-14
10
-73.457788835567342
20
38.899204273154126
30
0
10
-75.600637748051099
20
39.650750043670321
30
0
10
-76.782864034407126
20
39.892898404398963
30
-1.7763568394002505e-14
10
-77.955872708870956
20
40.026173048837073
30
-1.7763568394002505e-14
0
LINE
5
121
100
AcDbEntity
8
0
100
AcDbLine
10
-77.955872708870956
20
40.02617304883708
30
-1.7763568394002505e-14
11
-77.955872708870984
21
88.000000000000028
31
0
0
ENDSEC
0
SECTION
2
OBJECTS
0
DICTIONARY
5
C
100
AcDbDictionary
3
ACAD_GROUP
350
D
3
ACAD_MLINESTYLE
350
17
0
DICTIONARY
5
D
100
AcDbDictionary
0
DICTIONARY
5
1A
330
C
100
AcDbDictionary
0
DICTIONARY
5
17
100
AcDbDictionary
0
ENDSEC
0
EOF
