0
SECTION
2
HEADER
9
$INSUNITS
70
4
9
$ACADVER
1
AC1014
9
$HANDSEED
5
FFFF
0
ENDSEC
0
SECTION
2
TABLES
0
TABLE
2
VPORT
5
8
100
AcDbSymbolTable
0
ENDTAB
0
TABLE
2
LTYPE
5
5
100
AcDbSymbolTable
0
LTYPE
5
14
100
AcDbSymbolTableRecord
100
AcDbLinetypeTableRecord
2
BYBLOCK
70
0
0
LTYPE
5
15
100
AcDbSymbolTableRecord
100
AcDbLinetypeTableRecord
2
BYLAYER
70
0
0
ENDTAB
0
TABLE
2
LAYER
5
2
100
AcDbSymbolTable
70
2
0
LAYER
5
50
100
AcDbSymbolTableRecord
100
AcDbLayerTableRecord
2
0
70
0
6
CONTINUOUS
0
ENDTAB
0
TABLE
2
STYLE
5
3
100
AcDbSymbolTable
70
1
0
STYLE
5
11
100
AcDbSymbolTableRecord
100
AcDbTextStyleTableRecord
2
STANDARD
70
0
0
ENDTAB
0
TABLE
2
VIEW
5
6
100
AcDbSymbolTable
70
0
0
ENDTAB
0
TABLE
2
UCS
5
7
100
AcDbSymbolTable
70
0
0
ENDTAB
0
TABLE
2
APPID
5
9
100
AcDbSymbolTable
70
2
0
APPID
5
12
100
AcDbSymbolTableRecord
100
AcDbRegAppTableRecord
2
ACAD
70
0
0
ENDTAB
0
TABLE
2
DIMSTYLE
5
A
100
AcDbSymbolTable
70
1
0
ENDTAB
0
TABLE
2
BLOCK_RECORD
5
1
100
AcDbSymbolTable
70
1
0
BLOCK_RECORD
5
1F
100
AcDbSymbolTableRecord
100
AcDbBlockTableRecord
2
*MODEL_SPACE
0
BLOCK_RECORD
5
1B
100
AcDbSymbolTableRecord
100
AcDbBlockTableRecord
2
*PAPER_SPACE
0
ENDTAB
0
ENDSEC
0
SECTION
2
BLOCKS
0
BLOCK
5
20
100
AcDbEntity
100
AcDbBlockBegin
2
*MODEL_SPACE
0
ENDBLK
5
21
100
AcDbEntity
100
AcDbBlockEnd
0
BLOCK
5
1C
100
AcDbEntity
100
AcDbBlockBegin
2
*PAPER_SPACE
0
ENDBLK
5
1D
100
AcDbEntity
100
AcDbBlockEnd
0
ENDSEC
0
SECTION
2
ENTITIES
0
LINE
5
100
100
AcDbEntity
8
0
100
AcDbLine
10
-74.578302998394889
20
88
30
1.7763568394002505e-14
11
-77.578302998394889
21
88
31
1.8041124150158794e-14
0
LINE
5
101
100
AcDbEntity
8
0
100
AcDbLine
10
-77.578302998394889
20
88
30
1.8041124150158794e-14
11
-77.578302998394889
21
92.000000000000014
31
8.8817841970012523e-15
0
LINE
5
102
100
AcDbEntity
8
0
100
AcDbLine
10
-77.578302998394889
20
92.000000000000014
30
8.8817841970012523e-15
11
-94.578302998394889
21
92.000000000000014
31
8.8817841970012523e-15
0
LINE
5
103
100
AcDbEntity
8
0
100
AcDbLine
10
-94.578302998394889
20
92.000000000000014
30
8.8817841970012523e-15
11
-94.578302998394889
21
88
31
1.7763568394002505e-14
0
LINE
5
104
100
AcDbEntity
8
0
100
AcDbLine
10
-94.578302998394889
20
88
30
1.7763568394002505e-14
11
-97.578302998394889
21
88
31
1.8041124150158794e-14
0
LINE
5
105
100
AcDbEntity
8
0
100
AcDbLine
10
-97.578302998394889
20
88
30
1.8041124150158794e-14
11
-97.578302998394889
21
21.999999999999993
31
8.8817841970012523e-15
0
LINE
5
106
100
AcDbEntity
8
0
100
AcDbLine
10
-97.578302998394889
20
21.999999999999993
30
8.8817841970012523e-15
11
-90.636617829588161
21
21.999999999999993
31
8.8817841970012523e-15
0
LINE
5
107
100
AcDbEntity
8
0
100
AcDbLine
10
-90.636617829588161
20
21.999999999999993
30
8.8817841970012523e-15
11
-90.636617829588161
21
29
31
8.8817841970012523e-15
0
LINE
5
108
100
AcDbEntity
8
0
100
AcDbLine
10
-90.636617829588161
20
29
30
8.8817841970012523e-15
11
-89.636617829588161
21
29
31
8.9511731360403246e-15
0
SPLINE
5
109
100
AcDbEntity
8
0
100
AcDbSpline
70
4
71
5
72
21
73
15
74
0
42
0.000000001
43
0.0000000001
44
0.0000000001
40
-1
40
-1
40
-1
40
-1
40
-1
40
-1
40
-0.89999999999999991
40
-0.79999999999999993
40
-0.69999999999999996
40
-0.59999999999999998
40
-0.5
40
-0.40000000000000002
40
-0.30000000000000004
40
-0.20000000000000001
40
-0.10000000000000001
40
0
40
0
40
0
40
0
40
0
40
0
41
1
41
1
41
1
41
1
41
1
41
1
41
1
41
1
41
1
41
1
41
1
41
1
41
1
41
1
41
1
10
-89.636617829588161
20
29
30
8.8817841970012523e-15
10
-89.507582556830769
20
29.756299867409616
30
0
10
-89.236685471940518
20
31.205222947804927
30
8.8817841970012523e-15
10
-88.791862147292463
20
33.187591895198892
30
1.7763568394002505e-14
10
-88.120526549772094
20
35.442308274476765
30
8.8817841970012523e-15
10
-87.140484300326264
20
37.580825288354973
30
2.6645352591003757e-14
10
-86.002047312515884
20
39.011225460672385
30
2.6645352591003757e-14
10
-84.682673379551744
20
39.74297915791719
30
8.8817841970012523e-15
10
-83.157792497140719
20
39.858491821683884
30
8.8817841970012523e-15
10
-81.407942623435389
20
39.582895449638158
30
8.8817841970012523e-15
10
-79.416679492350141
20
39.2311549674356
30
1.7763568394002505e-14
10
-77.617724417697701
20
39.14600124383324
30
8.8817841970012523e-15
10
-76.146378084927946
20
39.30921560139759
30
8.8817841970012523e-15
10
-75.110207222478351
20
39.534486950112182
30
8.8817841970012523e-15
10
-74.578302998394889
20
39.676243146607959
30
1.7763568394002505e-14
0
LINE
5
110
100
AcDbEntity
8
0
100
AcDbLine
10
-74.578302998394889
20
39.676243146607952
30
1.7763568394002498e-14
11
-74.578302998394889
21
88
31
1.7763568394002505e-14
0
LINE
5
111
100
AcDbEntity
8
0
100
AcDbLine
10
-77.578302998394889
20
92.000000000000014
30
8.8817841970012523e-15
11
-77.578302998394889
21
88
31
8.8817841970012523e-15
0
LINE
5
112
100
AcDbEntity
8
0
100
AcDbLine
10
-77.578302998394889
20
88
30
8.8817841970012523e-15
11
-74.578302998394889
21
88
31
1.0824674490095276e-14
0
LINE
5
113
100
AcDbEntity
8
0
100
AcDbLine
10
-94.578302998394889
20
88
30
8.8817841970012523e-15
11
-94.578302998394889
21
92.000000000000014
31
8.8817841970012523e-15
0
LINE
5
114
100
AcDbEntity
8
0
100
AcDbLine
10
-97.578302998394889
20
88
30
8.8817841970012523e-15
11
-94.578302998394889
21
88
31
8.8817841970012523e-15
0
LINE
5
115
100
AcDbEntity
8
0
100
AcDbLine
10
-94.578302998394889
20
92.000000000000014
30
8.8817841970012523e-15
11
-77.578302998394889
21
92.000000000000014
31
8.8817841970012523e-15
0
LINE
5
116
100
AcDbEntity
8
0
100
AcDbLine
10
-89.636617829588161
20
29
30
8.8817841970012523e-15
11
-90.636617829588161
21
29
31
8.3960616237277463e-15
0
LINE
5
117
100
AcDbEntity
8
0
100
AcDbLine
10
-90.636617829588161
20
29
30
8.3960616237277463e-15
11
-90.636617829588161
21
21.999999999999993
31
8.8817841970012523e-15
0
LINE
5
118
100
AcDbEntity
8
0
100
AcDbLine
10
-97.578302998394904
20
21.999999999999996
30
8.8817841970012523e-15
11
-90.636617829588161
21
21.999999999999993
31
8.8817841970012523e-15
0
SPLINE
5
119
100
AcDbEntity
8
0
100
AcDbSpline
70
0
71
3
72
18
73
14
74
0
42
0.000000001
43
0.0000000001
44
0.0000000001
40
0
40
0
40
0
40
0
40
0.62315226871069118
40
0.62315226871069118
40
1.1624330433439285
40
1.1624330433439285
40
1.4345121319472152
40
1.4345121319472152
40
1.6747891362062877
40
1.6747891362062877
40
1.9446697305821512
40
1.9446697305821512
40
2.7803003533253787
40
2.7803003533253787
40
2.7803003533253787
40
2.7803003533253787
10
-74.578302998394889
20
39.676243146607959
30
1.7763568394002505e-14
10
-76.585421079249599
20
39.141332137863614
30
0
10
-78.178347989210678
20
39.151057254158722
30
0
10
-81.07390296781162
20
39.489393331927303
30
0
10
-82.237158098839117
20
39.758133168669787
30
1.7763568394002505e-14
10
-83.826059606029233
20
39.769306431173391
30
8.8817841970012523e-15
10
-84.344639780518918
20
39.706499228950165
30
1.7763568394002505e-14
10
-85.285446722434386
20
39.350192699750764
30
8.8817841970012523e-15
10
-85.671430689656773
20
39.099612631764906
30
8.8817841970012523e-15
10
-86.407076888646671
20
38.425795005629183
30
8.8817841970012523e-15
10
-86.796076941231604
20
37.940294029197354
30
1.7763568394002505e-14
10
-88.367953634687495
20
35.188987207138034
30
8.8817841970012523e-15
10
-89.129116287557522
20
31.974561457080149
30
1.7763568394002505e-14
10
-89.636617829588161
20
29
30
8.8817841970012523e-15
0
LINE
5
120
100
AcDbEntity
8
0
100
AcDbLine
10
-74.578302998394889
20
39.676243146607959
30
1.7763568394002505e-14
11
-74.578302998394889
21
88
31
1.0824674490095276e-14
0
LINE
5
121
100
AcDbEntity
8
0
100
AcDbLine
10
-97.578302998394889
20
88
30
8.8817841970012523e-15
11
-97.578302998394904
21
21.999999999999996
31
8.8817841970012523e-15
0
ENDSEC
0
SECTION
2
OBJECTS
0
DICTIONARY
5
C
100
AcDbDictionary
3
ACAD_GROUP
350
D
3
ACAD_MLINESTYLE
350
17
0
DICTIONARY
5
D
100
AcDbDictionary
0
DICTIONARY
5
1A
330
C
100
AcDbDictionary
0
DICTIONARY
5
17
100
AcDbDictionary
0
ENDSEC
0
EOF
