0
SECTION
2
HEADER
9
$INSUNITS
70
4
9
$ACADVER
1
AC1014
9
$HANDSEED
5
FFFF
0
ENDSEC
0
SECTION
2
TABLES
0
TABLE
2
VPORT
5
8
100
AcDbSymbolTable
0
ENDTAB
0
TABLE
2
LTYPE
5
5
100
AcDbSymbolTable
0
LTYPE
5
14
100
AcDbSymbolTableRecord
100
AcDbLinetypeTableRecord
2
BYBLOCK
70
0
0
LTYPE
5
15
100
AcDbSymbolTableRecord
100
AcDbLinetypeTableRecord
2
BYLAYER
70
0
0
ENDTAB
0
TABLE
2
LAYER
5
2
100
AcDbSymbolTable
70
2
0
LAYER
5
50
100
AcDbSymbolTableRecord
100
AcDbLayerTableRecord
2
0
70
0
6
CONTINUOUS
0
ENDTAB
0
TABLE
2
STYLE
5
3
100
AcDbSymbolTable
70
1
0
STYLE
5
11
100
AcDbSymbolTableRecord
100
AcDbTextStyleTableRecord
2
STANDARD
70
0
0
ENDTAB
0
TABLE
2
VIEW
5
6
100
AcDbSymbolTable
70
0
0
ENDTAB
0
TABLE
2
UCS
5
7
100
AcDbSymbolTable
70
0
0
ENDTAB
0
TABLE
2
APPID
5
9
100
AcDbSymbolTable
70
2
0
APPID
5
12
100
AcDbSymbolTableRecord
100
AcDbRegAppTableRecord
2
ACAD
70
0
0
ENDTAB
0
TABLE
2
DIMSTYLE
5
A
100
AcDbSymbolTable
70
1
0
ENDTAB
0
TABLE
2
BLOCK_RECORD
5
1
100
AcDbSymbolTable
70
1
0
BLOCK_RECORD
5
1F
100
AcDbSymbolTableRecord
100
AcDbBlockTableRecord
2
*MODEL_SPACE
0
BLOCK_RECORD
5
1B
100
AcDbSymbolTableRecord
100
AcDbBlockTableRecord
2
*PAPER_SPACE
0
ENDTAB
0
ENDSEC
0
SECTION
2
BLOCKS
0
BLOCK
5
20
100
AcDbEntity
100
AcDbBlockBegin
2
*MODEL_SPACE
0
ENDBLK
5
21
100
AcDbEntity
100
AcDbBlockEnd
0
BLOCK
5
1C
100
AcDbEntity
100
AcDbBlockBegin
2
*PAPER_SPACE
0
ENDBLK
5
1D
100
AcDbEntity
100
AcDbBlockEnd
0
ENDSEC
0
SECTION
2
ENTITIES
0
LINE
5
100
100
AcDbEntity
8
0
100
AcDbLine
10
26.85455598496705
20
87.999999999999716
30
0
11
23.854555984966961
21
87.999999999999673
31
5.5511151231255046e-16
0
LINE
5
101
100
AcDbEntity
8
0
100
AcDbLine
10
23.854555984966961
20
87.999999999999673
30
5.5511151231255046e-16
11
23.854555984966961
21
91.999999999999673
31
2.9582283945787943e-30
0
LINE
5
102
100
AcDbEntity
8
0
100
AcDbLine
10
23.854555984966961
20
91.999999999999673
30
2.9582283945787943e-30
11
6.8545559849669724
21
91.999999999999659
31
2.2204460492503068e-15
0
LINE
5
103
100
AcDbEntity
8
0
100
AcDbLine
10
6.8545559849669724
20
91.999999999999659
30
2.2204460492503068e-15
11
6.8545559849669671
21
87.999999999999673
31
-2.9582283945787943e-30
0
LINE
5
104
100
AcDbEntity
8
0
100
AcDbLine
10
6.8545559849669671
20
87.999999999999673
30
-2.9582283945787943e-30
11
3.8545559849670621
21
87.999999999999758
31
2.7755575615634214e-16
0
LINE
5
105
100
AcDbEntity
8
0
100
AcDbLine
10
3.8545559849670621
20
87.999999999999758
30
2.7755575615634214e-16
11
3.8545559849670816
21
39.676243146607732
31
1.7763568394002476e-14
0
SPLINE
5
106
100
AcDbEntity
8
0
100
AcDbSpline
70
0
71
3
72
18
73
14
74
0
42
0.000000001
43
0.0000000001
44
0.0000000001
40
0
40
0
40
0
40
0
40
0.62315226871069118
40
0.62315226871069118
40
1.1624330433439285
40
1.1624330433439285
40
1.4345121319472152
40
1.4345121319472152
40
1.6747891362062877
40
1.6747891362062877
40
1.9446697305821512
40
1.9446697305821512
40
2.7803003533253787
40
2.7803003533253787
40
2.7803003533253787
40
2.7803003533253787
10
3.8545559849670674
20
39.676243146607725
30
0
10
5.8616740658217825
20
39.141332137863373
30
0
10
7.4546009757828635
20
39.151057254158481
30
0
10
10.3501559543838
20
39.489393331927062
30
0
10
11.513411085411294
20
39.758133168669538
30
0
10
13.102312592601404
20
39.769306431173142
30
0
10
13.620892767091073
20
39.706499228949916
30
0
10
14.561699709006541
20
39.350192699750515
30
-1.7763568394002505e-14
10
14.947683676228936
20
39.099612631764657
30
-1.7763568394002505e-14
10
15.683329875218845
20
38.425795005628927
30
-1.7763568394002505e-14
10
16.07232992780375
20
37.940294029197105
30
0
10
17.644206621259677
20
35.188987207137778
30
0
10
18.405369274129697
20
31.974561457079901
30
0
10
18.912870816160343
20
28.999999999999744
30
0
0
LINE
5
107
100
AcDbEntity
8
0
100
AcDbLine
10
18.912870816160343
20
28.999999999999744
30
0
11
19.912870816160339
21
28.999999999999744
31
-6.9388939039073122e-17
0
LINE
5
108
100
AcDbEntity
8
0
100
AcDbLine
10
19.912870816160339
20
28.999999999999744
30
-6.9388939039073122e-17
11
19.91287081616035
21
21.999999999999744
31
-4.9303806576313238e-30
0
LINE
5
109
100
AcDbEntity
8
0
100
AcDbLine
10
19.91287081616035
20
21.999999999999744
30
-4.9303806576313238e-30
11
26.854555984967075
21
21.999999999999741
31
-5.5511151231258143e-16
0
LINE
5
110
100
AcDbEntity
8
0
100
AcDbLine
10
26.854555984967075
20
21.999999999999741
30
-5.5511151231258143e-16
11
26.85455598496705
21
87.999999999999716
31
0
0
LINE
5
111
100
AcDbEntity
8
0
100
AcDbLine
10
23.854555984967032
20
91.999999999999716
30
0
11
23.854555984967028
21
87.999999999999716
31
4.0050181476003736e-15
0
LINE
5
112
100
AcDbEntity
8
0
100
AcDbLine
10
23.854555984967028
20
87.999999999999716
30
4.0050181476003736e-15
11
26.854555984967114
21
87.999999999999716
31
4.9960036108132044e-15
0
LINE
5
113
100
AcDbEntity
8
0
100
AcDbLine
10
6.8545559849670301
20
87.999999999999687
30
0
11
6.8545559849670301
21
91.999999999999716
31
2.2753516871351813e-15
0
LINE
5
114
100
AcDbEntity
8
0
100
AcDbLine
10
3.8545559849671296
20
87.999999999999702
30
0
11
6.8545559849670301
21
87.999999999999687
31
0
0
LINE
5
115
100
AcDbEntity
8
0
100
AcDbLine
10
6.8545559849670301
20
91.999999999999716
30
2.2753516871351813e-15
11
23.854555984967032
21
91.999999999999716
31
0
0
LINE
5
116
100
AcDbEntity
8
0
100
AcDbLine
10
26.854555984966993
20
21.999999999999748
30
0
11
26.854555984967114
21
87.999999999999716
31
4.9960036108132044e-15
0
LINE
5
117
100
AcDbEntity
8
0
100
AcDbLine
10
19.912870816160311
20
21.999999999999762
30
0
11
26.854555984966993
21
21.999999999999748
31
0
0
LINE
5
118
100
AcDbEntity
8
0
100
AcDbLine
10
19.912870816160311
20
21.999999999999762
30
0
11
19.9128708161603
21
28.999999999999766
31
1.5465064011753518e-14
0
LINE
5
119
100
AcDbEntity
8
0
100
AcDbLine
10
19.9128708161603
20
28.999999999999766
30
1.5465064011753518e-14
11
18.912870816160304
21
28.999999999999766
31
-5.8286708792820718e-15
0
SPLINE
5
120
100
AcDbEntity
8
0
100
AcDbSpline
70
4
71
5
72
21
73
15
74
0
42
0.000000001
43
0.0000000001
44
0.0000000001
40
-1
40
-1
40
-1
40
-1
40
-1
40
-1
40
-0.89999999999999991
40
-0.79999999999999993
40
-0.69999999999999996
40
-0.59999999999999998
40
-0.5
40
-0.40000000000000002
40
-0.30000000000000004
40
-0.20000000000000001
40
-0.10000000000000001
40
0
40
0
40
0
40
0
40
0
40
0
41
1
41
1
41
1
41
1
41
1
41
1
41
1
41
1
41
1
41
1
41
1
41
1
41
1
41
1
41
1
10
18.912870816160297
20
28.999999999999766
30
0
10
18.783835543402915
20
29.756299867409378
30
0
10
18.512938458512657
20
31.205222947804693
30
-1.7763568394002505e-14
10
18.06811513386462
20
33.187591895198658
30
0
10
17.396779536344251
20
35.442308274476531
30
0
10
16.416737286898417
20
37.580825288354745
30
-1.7763568394002505e-14
10
15.278300299088041
20
39.011225460672151
30
0
10
13.958926366123903
20
39.742979157916963
30
0
10
12.434045483712888
20
39.858491821683664
30
0
10
10.684195610007547
20
39.582895449637931
30
0
10
8.6929324789222928
20
39.231154967435373
30
0
10
6.893977404269851
20
39.14600124383302
30
0
10
5.422631071500108
20
39.309215601397376
30
0
10
4.3864602090505223
20
39.534486950111969
30
0
10
3.8545559849670497
20
39.676243146607746
30
0
0
LINE
5
121
100
AcDbEntity
8
0
100
AcDbLine
10
3.8545559849670497
20
39.676243146607739
30
0
11
3.8545559849671296
21
87.999999999999702
31
0
0
ENDSEC
0
SECTION
2
OBJECTS
0
DICTIONARY
5
C
100
AcDbDictionary
3
ACAD_GROUP
350
D
3
ACAD_MLINESTYLE
350
17
0
DICTIONARY
5
D
100
AcDbDictionary
0
DICTIONARY
5
1A
330
C
100
AcDbDictionary
0
DICTIONARY
5
17
100
AcDbDictionary
0
ENDSEC
0
EOF
