0
SECTION
2
HEADER
9
$INSUNITS
70
4
9
$ACADVER
1
AC1014
9
$HANDSEED
5
FFFF
0
ENDSEC
0
SECTION
2
TABLES
0
TABLE
2
VPORT
5
8
100
AcDbSymbolTable
0
ENDTAB
0
TABLE
2
LTYPE
5
5
100
AcDbSymbolTable
0
LTYPE
5
14
100
AcDbSymbolTableRecord
100
AcDbLinetypeTableRecord
2
BYBLOCK
70
0
0
LTYPE
5
15
100
AcDbSymbolTableRecord
100
AcDbLinetypeTableRecord
2
BYLAYER
70
0
0
ENDTAB
0
TABLE
2
LAYER
5
2
100
AcDbSymbolTable
70
2
0
LAYER
5
50
100
AcDbSymbolTableRecord
100
AcDbLayerTableRecord
2
0
70
0
6
CONTINUOUS
0
ENDTAB
0
TABLE
2
STYLE
5
3
100
AcDbSymbolTable
70
1
0
STYLE
5
11
100
AcDbSymbolTableRecord
100
AcDbTextStyleTableRecord
2
STANDARD
70
0
0
ENDTAB
0
TABLE
2
VIEW
5
6
100
AcDbSymbolTable
70
0
0
ENDTAB
0
TABLE
2
UCS
5
7
100
AcDbSymbolTable
70
0
0
ENDTAB
0
TABLE
2
APPID
5
9
100
AcDbSymbolTable
70
2
0
APPID
5
12
100
AcDbSymbolTableRecord
100
AcDbRegAppTableRecord
2
ACAD
70
0
0
ENDTAB
0
TABLE
2
DIMSTYLE
5
A
100
AcDbSymbolTable
70
1
0
ENDTAB
0
TABLE
2
BLOCK_RECORD
5
1
100
AcDbSymbolTable
70
1
0
BLOCK_RECORD
5
1F
100
AcDbSymbolTableRecord
100
AcDbBlockTableRecord
2
*MODEL_SPACE
0
BLOCK_RECORD
5
1B
100
AcDbSymbolTableRecord
100
AcDbBlockTableRecord
2
*PAPER_SPACE
0
ENDTAB
0
ENDSEC
0
SECTION
2
BLOCKS
0
BLOCK
5
20
100
AcDbEntity
100
AcDbBlockBegin
2
*MODEL_SPACE
0
ENDBLK
5
21
100
AcDbEntity
100
AcDbBlockEnd
0
BLOCK
5
1C
100
AcDbEntity
100
AcDbBlockBegin
2
*PAPER_SPACE
0
ENDBLK
5
1D
100
AcDbEntity
100
AcDbBlockEnd
0
ENDSEC
0
SECTION
2
ENTITIES
0
LINE
5
100
100
AcDbEntity
8
0
100
AcDbLine
10
-15.000000223517379
20
91.900000002235188
30
0
11
-44.999999999999964
21
91.900000002235188
31
4.1053665641142434e-47
0
LINE
5
101
100
AcDbEntity
8
0
100
AcDbLine
10
-44.999999999999964
20
91.900000002235188
30
4.1053665641142434e-47
11
-44.999999999999964
21
87.900000002235174
31
1.8488927466117426e-32
0
LINE
5
102
100
AcDbEntity
8
0
100
AcDbLine
10
-44.999999999999964
20
87.900000002235174
30
1.8488927466117426e-32
11
-69.999999918043557
21
87.900000002235174
31
3.4211388177026356e-47
0
LINE
5
103
100
AcDbEntity
8
0
100
AcDbLine
10
-69.999999918043557
20
87.900000002235174
30
3.4211388177026356e-47
11
-69.999999918043557
21
39.827842513256968
31
0
0
SPLINE
5
104
100
AcDbEntity
8
0
100
AcDbSpline
70
4
71
5
72
21
73
15
74
0
42
0.000000001
43
0.0000000001
44
0.0000000001
40
0
40
0
40
0
40
0
40
0
40
0
40
0.10000000000000001
40
0.20000000000000001
40
0.30000000000000004
40
0.40000000000000002
40
0.5
40
0.59999999999999998
40
0.69999999999999996
40
0.79999999999999993
40
0.89999999999999991
40
0.99701088872714028
40
0.99701088872714028
40
0.99701088872714028
40
0.99701088872714028
40
0.99701088872714028
40
0.99701088872714028
41
1
41
1
41
1
41
1
41
1
41
1
41
1
41
1
41
1
41
1
41
1
41
1
41
1
41
1
41
1
10
-69.999999918043557
20
39.827842513256975
30
0
10
-69.238144928268653
20
40.042234704090831
30
0
10
-67.747723528106533
20
40.43431143979258
30
0
10
-65.611950780739278
20
40.912310646566851
30
0
10
-62.967313439111969
20
41.325727031055109
30
0
10
-60.023796317563978
20
41.443008260141241
30
0
10
-57.478076680053469
20
41.121634266336272
30
0
10
-55.367917377590032
20
40.319963580060225
30
0
10
-53.722515249262102
20
39.005800557860645
30
0
10
-52.537157707906687
20
37.18434181623531
30
0
10
-51.787239175843574
20
34.901423422461171
30
0
10
-51.502757161502345
20
32.730976420791606
30
0
10
-51.455307338380052
20
30.924864522742254
30
0
10
-51.495413720595941
20
29.647916377421243
30
0
10
-51.532510314674845
20
29.000000002235179
30
0
0
LINE
5
105
100
AcDbEntity
8
0
100
AcDbLine
10
-51.532510314674845
20
29.000000002235176
30
0
11
-50.532510314674852
21
29.000000002235176
31
-1.3684555315671969e-48
0
LINE
5
106
100
AcDbEntity
8
0
100
AcDbLine
10
-50.532510314674852
20
29.000000002235176
30
-1.3684555315671969e-48
11
-50.532510314674852
21
22.900000002235174
31
0
0
LINE
5
107
100
AcDbEntity
8
0
100
AcDbLine
10
-50.532510314674852
20
22.900000002235174
30
0
11
-46.607752987300152
21
22.900000002235174
31
-5.3708558747048141e-48
0
LINE
5
108
100
AcDbEntity
8
0
100
AcDbLine
10
-46.607752987300152
20
22.900000002235174
30
-5.3708558747048141e-48
11
-46.607752987300159
21
29.000000002235176
31
0
0
SPLINE
5
109
100
AcDbEntity
8
0
100
AcDbSpline
70
4
71
5
72
36
73
30
74
0
42
0.000000001
43
0.0000000001
44
0.0000000001
40
0.00097124283125087855
40
0.00097124283125087855
40
0.00097124283125087855
40
0.00097124283125087855
40
0.00097124283125087855
40
0.00097124283125087855
40
0.040000000000000001
40
0.080000000000000002
40
0.12
40
0.16
40
0.20000000000000001
40
0.24000000000000002
40
0.28000000000000003
40
0.32000000000000001
40
0.35999999999999999
40
0.39999999999999997
40
0.43999999999999995
40
0.47999999999999993
40
0.51999999999999991
40
0.55999999999999994
40
0.59999999999999998
40
0.64000000000000001
40
0.68000000000000005
40
0.72000000000000008
40
0.76000000000000012
40
0.80000000000000016
40
0.84000000000000019
40
0.88000000000000023
40
0.92000000000000026
40
0.9600000000000003
40
0.99902645282664904
40
0.99902645282664904
40
0.99902645282664904
40
0.99902645282664904
40
0.99902645282664904
40
0.99902645282664904
41
1
41
1
41
1
41
1
41
1
41
1
41
1
41
1
41
1
41
1
41
1
41
1
41
1
41
1
41
1
41
1
41
1
41
1
41
1
41
1
41
1
41
1
41
1
41
1
41
1
41
1
41
1
41
1
41
1
41
1
10
-46.607752987300174
20
29.000000002235474
30
0
10
-46.621566363366824
20
29.626880887268179
30
0
10
-46.612484940862828
20
30.829022944592026
30
0
10
-46.485797978975739
20
32.434600365146707
30
0
10
-46.088588752159367
20
34.166212153287695
30
0
10
-45.212985943161222
20
35.649271353747302
30
0
10
-43.965285230126348
20
36.482755308023535
30
0
10
-42.383441746778047
20
36.736062352392537
30
0
10
-40.530427243248745
20
36.550353667758735
30
0
10
-38.489934360993708
20
36.111267331553677
30
0
10
-36.350938827583008
20
35.613241877407781
30
0
10
-34.195583926681842
20
35.231484391483662
30
0
10
-32.083665890036116
20
35.085607389458232
30
0
10
-30.045366987666142
20
35.22369203453637
30
0
10
-28.087511227970655
20
35.640040593598776
30
0
10
-26.196518616860217
20
36.284763803857324
30
0
10
-24.342466570934004
20
37.075975833470494
30
0
10
-22.48231805858093
20
37.910447347882695
30
0
10
-20.56537208170657
20
38.674069964137686
30
0
10
-18.538979634338261
20
39.252264051904675
30
0
10
-16.353814267560129
20
39.53975536646292
30
0
10
-13.970188360080115
20
39.452284071068114
30
0
10
-11.361477869117259
20
38.93281915049257
30
0
10
-8.5106921350784663
20
37.944618809502209
30
0
10
-5.408585668874105
20
36.467270602011006
30
0
10
-2.0676943277793036
20
34.501555156581098
30
0
10
0.80362270244320255
20
32.536321993489651
30
0
10
3.065261276244382
20
30.845320847687393
30
0
10
4.6163376472289386
20
29.625831043326478
30
0
10
5.3943890103374468
20
29.00000000125587
30
0
0
LINE
5
110
100
AcDbEntity
8
0
100
AcDbLine
10
5.3943890103374459
20
29.00000000125587
30
0
11
5.3943890091199451
21
22.900000002235167
31
0
0
LINE
5
111
100
AcDbEntity
8
0
100
AcDbLine
10
5.3943890091199451
20
22.900000002235167
30
0
11
9.5000001415610456
21
22.900000002235167
31
-5.6183462646529099e-48
0
LINE
5
112
100
AcDbEntity
8
0
100
AcDbLine
10
9.5000001415610456
20
22.900000002235167
30
-5.6183462646529099e-48
11
9.5000001415610527
21
87.900000002235174
31
-2.1895288505075267e-46
0
LINE
5
113
100
AcDbEntity
8
0
100
AcDbLine
10
9.5000001415610527
20
87.900000002235174
30
-2.1895288505075267e-46
11
-15.000000223517379
21
87.900000002235174
31
3.3527161022990067e-47
0
LINE
5
114
100
AcDbEntity
8
0
100
AcDbLine
10
-15.000000223517379
20
87.900000002235174
30
3.3527161022990067e-47
11
-15.000000223517379
21
91.900000002235188
31
0
0
LWPOLYLINE
5
115
100
AcDbEntity
8
0
100
AcDbPolyline
90
4
70
1
43
0.0
10
-9.9999999254941887
20
73.000000002235183
10
-9.9999999254941869
20
69.000000002235168
10
-40.000000596046419
20
69.000000002235168
10
-40.000000596046419
20
73.000000002235183
0
LINE
5
116
100
AcDbEntity
8
0
100
AcDbLine
10
-44.999999999999993
20
91.900000002235188
30
0
11
-15.000000223517391
21
91.900000002235188
31
-4.342698018688169e-23
0
LWPOLYLINE
5
117
100
AcDbEntity
8
0
100
AcDbPolyline
90
4
70
1
43
0.0
10
-40.000000596046441
20
73.000000002235183
10
-40.000000596046441
20
69.000000002235168
10
-9.999999925494194
20
69.000000002235168
10
-9.9999999254941958
20
73.000000002235183
0
LINE
5
118
100
AcDbEntity
8
0
100
AcDbLine
10
-15.000000223517391
20
91.900000002235188
30
-4.342698018688169e-23
11
-15.000000223517393
21
87.900000002235174
31
-5.5511151231257827e-16
0
LINE
5
119
100
AcDbEntity
8
0
100
AcDbLine
10
-15.000000223517393
20
87.900000002235174
30
-5.5511151231257827e-16
11
9.5000001415610598
21
87.900000002235174
31
-5.1347807795839836e-16
0
LINE
5
120
100
AcDbEntity
8
0
100
AcDbLine
10
9.5000001415610509
20
22.900000002235167
30
0
11
9.5000001415610598
21
87.900000002235174
31
-5.1347807795839836e-16
0
LINE
5
121
100
AcDbEntity
8
0
100
AcDbLine
10
5.394389009119946
20
22.900000002235167
30
-2.7755575615628914e-16
11
9.5000001415610509
21
22.900000002235167
31
0
0
LINE
5
122
100
AcDbEntity
8
0
100
AcDbLine
10
5.3943890091199478
20
29.000000002235172
30
-2.7755575615628914e-16
11
5.394389009119946
21
22.900000002235167
31
-2.7755575615628914e-16
0
SPLINE
5
123
100
AcDbEntity
8
0
100
AcDbSpline
70
0
71
3
72
28
73
24
74
0
42
0.000000001
43
0.0000000001
44
0.0000000001
40
0.012488758391922324
40
0.012488758391922324
40
0.012488758391922324
40
0.012488758391922324
40
2.3906379623619536
40
2.3906379623619536
40
3.9535480423651519
40
3.9535480423651519
40
5.4750477411680158
40
5.4750477411680158
40
8.5426567362438046
40
8.5426567362438046
40
10.325742335130448
40
10.325742335130448
40
12.233024757417322
40
12.233024757417322
40
12.993104217844973
40
12.993104217844973
40
13.590611698441736
40
13.590611698441736
40
14.195772882830884
40
14.195772882830884
40
15.111721064251917
40
15.111721064251917
40
16.770127269022957
40
16.770127269022957
40
16.770127269022957
40
16.770127269022957
10
5.3943890091207249
20
29.00000000223455
30
-2.7755575615628914e-16
10
-0.76341943728724548
20
33.953076186540756
30
-5.5511151231257827e-16
10
-5.6003568454672203
20
36.825508788170417
30
-2.7755575615628914e-16
10
-12.270510835197996
20
39.235211501375758
30
-5.5511151231257827e-16
10
-14.448891257670169
20
39.526508734178869
30
-2.7755575615628914e-16
10
-18.167596637635558
20
39.365694552245678
30
-5.5511151231257827e-16
10
-19.754890945899398
20
38.932720226403646
30
-2.7755575615628914e-16
10
-24.305259859539806
20
37.237737301440362
30
0
10
-26.962269487281322
20
35.598501925896421
30
-5.5511151231257827e-16
10
-32.681708952435777
20
35.018137560527194
30
-5.5511151231257827e-16
10
-34.589635856367799
20
35.286600087978933
30
-2.7755575615628914e-16
10
-38.438666888603301
20
36.064549362406936
30
-5.5511151231257827e-16
10
-40.297051759097982
20
36.575731576643719
30
-2.7755575615628914e-16
10
-42.507006121492267
20
36.645190857309672
30
-2.7755575615628914e-16
10
-43.101750819176566
20
36.592255854121987
30
-2.7755575615628914e-16
10
-44.070825517308769
20
36.287953266239612
30
-5.5511151231257827e-16
10
-44.456075251344743
20
36.084114593904609
30
0
10
-45.144399645028813
20
35.505446936946207
30
-2.7755575615628914e-16
10
-45.420412696556404
20
35.149983673555298
30
-2.7755575615628914e-16
10
-45.978694962683875
20
34.160611987095393
30
-2.7755575615628914e-16
10
-46.19218783099214
20
33.474936676530824
30
-2.7755575615628914e-16
10
-46.583275352766158
20
31.598395421351423
30
-5.5511151231257827e-16
10
-46.634944665707081
20
30.234017185504079
30
-5.5511151231257827e-16
10
-46.607752987300188
20
29.000000002235158
30
-5.5511151231257827e-16
0
LINE
5
124
100
AcDbEntity
8
0
100
AcDbLine
10
-46.607752987300188
20
29.000000002235161
30
-5.5511151231257827e-16
11
-46.607752987300216
21
22.900000002235174
31
-5.5511151231257837e-16
0
LINE
5
125
100
AcDbEntity
8
0
100
AcDbLine
10
-50.53251031467488
20
22.900000002235174
30
-2.7755575615628914e-16
11
-46.607752987300216
21
22.900000002235174
31
-5.5511151231257837e-16
0
LINE
5
126
100
AcDbEntity
8
0
100
AcDbLine
10
-50.53251031467488
20
22.900000002235174
30
-2.7755575615628914e-16
11
-50.532510314674866
21
29.000000002235176
31
7.518830502887764e-32
0
LINE
5
127
100
AcDbEntity
8
0
100
AcDbLine
10
-50.532510314674866
20
29.000000002235176
30
7.518830502887764e-32
11
-51.532510314674873
21
29.000000002235176
31
-4.7184478546569074e-16
0
SPLINE
5
128
100
AcDbEntity
8
0
100
AcDbSpline
70
0
71
3
72
18
73
14
74
0
42
0.000000001
43
0.0000000001
44
0.0000000001
40
0.01000330224515664
40
0.01000330224515664
40
0.01000330224515664
40
0.01000330224515664
40
0.58914679815172055
40
0.58914679815172055
40
0.93991475601478292
40
0.93991475601478292
40
1.2057977140823377
40
1.2057977140823377
40
1.4810865230340966
40
1.4810865230340966
40
1.9197183364405159
40
1.9197183364405159
40
2.703915920873512
40
2.703915920873512
40
2.703915920873512
40
2.703915920873512
10
-51.532510314674894
20
29.000000002235168
30
-2.7755575615628914e-16
10
-51.421854822464688
20
30.932670835971074
30
-2.7755575615628914e-16
10
-51.475473456394866
20
33.027019940158127
30
-2.7755575615628914e-16
10
-52.177020942845516
20
36.048914048631417
30
-5.5511151231257827e-16
10
-52.596224717054227
20
37.171708730647957
30
-5.5511151231257827e-16
10
-53.758164969212487
20
38.875293752556964
30
-2.7755575615628914e-16
10
-54.374044586648935
20
39.487140056171327
30
-2.7755575615628914e-16
10
-55.892700277273747
20
40.473670731947912
30
0
10
-56.751987850249591
20
40.804429173631775
30
-2.7755575615628914e-16
10
-59.071814807477487
20
41.352912564047166
30
0
10
-60.625293140476508
20
41.394784343075102
30
-2.7755575615628914e-16
10
-64.684654680616674
20
41.145452102691465
30
0
10
-67.489170786852299
20
40.534410253142241
30
0
10
-69.999999918043599
20
39.827842513256975
30
-5.5511151231257827e-16
0
LINE
5
129
100
AcDbEntity
8
0
100
AcDbLine
10
-69.999999918043599
20
39.827842513256982
30
-5.5511151231257827e-16
11
-69.999999918043599
21
87.900000002235203
31
-5.5511151231257768e-16
0
LINE
5
130
100
AcDbEntity
8
0
100
AcDbLine
10
-69.999999918043599
20
87.900000002235203
30
-5.5511151231257768e-16
11
-44.999999999999993
21
87.900000002235174
31
-4.1633365015766404e-16
0
LINE
5
131
100
AcDbEntity
8
0
100
AcDbLine
10
-44.999999999999993
20
87.900000002235174
30
-4.1633365015766404e-16
11
-44.999999999999993
21
91.900000002235188
31
0
0
ENDSEC
0
SECTION
2
OBJECTS
0
DICTIONARY
5
C
100
AcDbDictionary
3
ACAD_GROUP
350
D
3
ACAD_MLINESTYLE
350
17
0
DICTIONARY
5
D
100
AcDbDictionary
0
DICTIONARY
5
1A
330
C
100
AcDbDictionary
0
DICTIONARY
5
17
100
AcDbDictionary
0
ENDSEC
0
EOF
