0
SECTION
2
HEADER
9
$INSUNITS
70
4
9
$ACADVER
1
AC1014
9
$HANDSEED
5
FFFF
0
ENDSEC
0
SECTION
2
TABLES
0
TABLE
2
VPORT
5
8
100
AcDbSymbolTable
0
ENDTAB
0
TABLE
2
LTYPE
5
5
100
AcDbSymbolTable
0
LTYPE
5
14
100
AcDbSymbolTableRecord
100
AcDbLinetypeTableRecord
2
BYBLOCK
70
0
0
LTYPE
5
15
100
AcDbSymbolTableRecord
100
AcDbLinetypeTableRecord
2
BYLAYER
70
0
0
ENDTAB
0
TABLE
2
LAYER
5
2
100
AcDbSymbolTable
70
2
0
LAYER
5
50
100
AcDbSymbolTableRecord
100
AcDbLayerTableRecord
2
0
70
0
6
CONTINUOUS
0
ENDTAB
0
TABLE
2
STYLE
5
3
100
AcDbSymbolTable
70
1
0
STYLE
5
11
100
AcDbSymbolTableRecord
100
AcDbTextStyleTableRecord
2
STANDARD
70
0
0
ENDTAB
0
TABLE
2
VIEW
5
6
100
AcDbSymbolTable
70
0
0
ENDTAB
0
TABLE
2
UCS
5
7
100
AcDbSymbolTable
70
0
0
ENDTAB
0
TABLE
2
APPID
5
9
100
AcDbSymbolTable
70
2
0
APPID
5
12
100
AcDbSymbolTableRecord
100
AcDbRegAppTableRecord
2
ACAD
70
0
0
ENDTAB
0
TABLE
2
DIMSTYLE
5
A
100
AcDbSymbolTable
70
1
0
ENDTAB
0
TABLE
2
BLOCK_RECORD
5
1
100
AcDbSymbolTable
70
1
0
BLOCK_RECORD
5
1F
100
AcDbSymbolTableRecord
100
AcDbBlockTableRecord
2
*MODEL_SPACE
0
BLOCK_RECORD
5
1B
100
AcDbSymbolTableRecord
100
AcDbBlockTableRecord
2
*PAPER_SPACE
0
ENDTAB
0
ENDSEC
0
SECTION
2
BLOCKS
0
BLOCK
5
20
100
AcDbEntity
100
AcDbBlockBegin
2
*MODEL_SPACE
0
ENDBLK
5
21
100
AcDbEntity
100
AcDbBlockEnd
0
BLOCK
5
1C
100
AcDbEntity
100
AcDbBlockBegin
2
*PAPER_SPACE
0
ENDBLK
5
1D
100
AcDbEntity
100
AcDbBlockEnd
0
ENDSEC
0
SECTION
2
ENTITIES
0
LWPOLYLINE
5
100
100
AcDbEntity
8
0
100
AcDbPolyline
90
6
70
1
43
0.0
10
-31.649648658931255
20
-78.83375883102417
10
-34.081046096980572
20
-78.83375883102417
10
-34.081046096980572
20
-77.5
10
-30.156348459422588
20
-77.5
10
-30.156348459422588
20
-87.487236261367798
10
-31.649648658931255
20
-87.487236261367798
0
LINE
5
101
100
AcDbEntity
8
0
100
AcDbLine
10
-55.255263559520245
20
-87.487236261367798
30
0
11
-56.786850206553936
21
-87.487236261367798
31
0
0
LINE
5
102
100
AcDbEntity
8
0
100
AcDbLine
10
-56.786850206553936
20
-87.487236261367798
30
0
11
-56.786850206553936
21
-87.429801821708679
31
0
0
LINE
5
103
100
AcDbEntity
8
0
100
AcDbLine
10
-56.786850206553936
20
-87.429801821708679
30
0
11
-55.465858690440655
21
-83.256222009658813
31
0
0
SPLINE
5
104
100
AcDbEntity
8
0
100
AcDbSpline
70
0
71
3
72
9
73
5
74
0
42
0.000000001
43
0.0000000001
44
0.0000000001
40
0
40
0
40
0
40
0
40
0.08788957967764939
40
0.21883520943417212
40
0.21883520943417212
40
0.21883520943417212
40
0.21883520943417212
10
-55.465858690440655
20
-83.256222009658813
30
0
10
-55.368251400294071
20
-82.979925261443285
30
0
10
-55.125220180212331
20
-82.29197730466062
30
0
10
-54.927099041658202
20
-81.589673686439539
30
0
10
-54.808548204600811
20
-81.169432401657104
30
0
0
LINE
5
105
100
AcDbEntity
8
0
100
AcDbLine
10
-54.808548204600818
20
-81.169432401657104
30
0
11
-54.808548204600811
21
-77.5
31
0
0
LINE
5
106
100
AcDbEntity
8
0
100
AcDbLine
10
-54.808548204600811
20
-77.5
30
0
11
-53.308869116008282
21
-77.5
31
0
0
LINE
5
107
100
AcDbEntity
8
0
100
AcDbLine
10
-53.308869116008282
20
-77.5
30
0
11
-53.308869116008282
21
-81.169432401657104
31
0
0
SPLINE
5
108
100
AcDbEntity
8
0
100
AcDbSpline
70
0
71
3
72
9
73
5
74
0
42
0.000000001
43
0.0000000001
44
0.0000000001
40
0
40
0
40
0
40
0
40
0.052702624254524842
40
0.10936928704114753
40
0.10936928704114753
40
0.10936928704114753
40
0.10936928704114753
10
-53.308869116008282
20
-81.169432401657104
30
0
10
-53.270026903441078
20
-81.340872571891765
30
0
10
-53.18942095344017
20
-81.696647819405513
30
0
10
-53.074735133276683
20
-82.042965045707788
30
0
10
-53.015313856303692
20
-82.222399711608887
30
0
0
SPLINE
5
109
100
AcDbEntity
8
0
100
AcDbSpline
70
0
71
3
72
9
73
5
74
0
42
0.000000001
43
0.0000000001
44
0.0000000001
40
0
40
0
40
0
40
0
40
0.077859776074548304
40
0.10959550470962674
40
0.10959550470962674
40
0.10959550470962674
40
0.10959550470962674
10
-53.015313856303692
20
-82.222399711608887
30
0
10
-52.927963274760927
20
-82.466794772399538
30
0
10
-52.805008502046284
20
-82.810805523345508
30
0
10
-52.686019279593438
20
-83.156204367381875
30
0
10
-52.65156339854002
20
-83.256222009658813
30
0
0
LINE
5
110
100
AcDbEntity
8
0
100
AcDbLine
10
-52.651563398540027
20
-83.256222009658813
30
0
11
-51.336949579417706
21
-87.429801821708679
31
0
0
SPLINE
5
111
100
AcDbEntity
8
0
100
AcDbSpline
70
0
71
3
72
9
73
5
74
0
42
0.000000001
43
0.0000000001
44
0.0000000001
40
0
40
0
40
0
40
0
40
0.0017836974057266891
40
0.0057849385902180262
40
0.0057849385902180262
40
0.0057849385902180262
40
0.0057849385902180262
10
-51.336949579417706
20
-87.429801821708679
30
0
10
-51.335649219968928
20
-87.435639759633943
30
0
10
-51.331431856904864
20
-87.454573527369831
30
0
10
-51.334693567462963
20
-87.473881563265024
30
0
10
-51.336949579417706
20
-87.487236261367798
30
0
0
LINE
5
112
100
AcDbEntity
8
0
100
AcDbLine
10
-51.336949579417713
20
-87.487236261367798
30
0
11
-52.874918691813946
21
-87.487236261367798
31
0
0
LINE
5
113
100
AcDbEntity
8
0
100
AcDbLine
10
-52.874918691813946
20
-87.487236261367798
30
0
11
-54.06828235834837
21
-83.147734403610229
31
0
0
LINE
5
114
100
AcDbEntity
8
0
100
AcDbLine
10
-54.06828235834837
20
-83.147734403610229
30
0
11
-55.255263559520245
21
-87.487236261367798
31
0
0
LINE
5
115
100
AcDbEntity
8
0
100
AcDbLine
10
-67.342050783336163
20
-87.487236261367798
30
0
11
-68.752392046153545
21
-87.487236261367798
31
0
0
LINE
5
116
100
AcDbEntity
8
0
100
AcDbLine
10
-68.752392046153545
20
-87.487236261367798
30
0
11
-68.752392046153545
21
-77.5
31
0
0
LINE
5
117
100
AcDbEntity
8
0
100
AcDbLine
10
-68.752392046153545
20
-77.5
30
0
11
-67.316530458629131
21
-77.5
31
0
0
LINE
5
118
100
AcDbEntity
8
0
100
AcDbLine
10
-67.316530458629131
20
-77.5
30
0
11
-67.316530458629131
21
-82.426611185073853
31
0
0
SPLINE
5
119
100
AcDbEntity
8
0
100
AcDbSpline
70
0
71
3
72
9
73
5
74
0
42
0.000000001
43
0.0000000001
44
0.0000000001
40
0
40
0
40
0
40
0
40
0.046639368552897909
40
0.108902647938144
40
0.108902647938144
40
0.108902647938144
40
0.108902647938144
10
-67.316530458629131
20
-82.426611185073853
30
0
10
-67.321987155531986
20
-82.582052514025008
30
0
10
-67.334728510317788
20
-82.94500709182131
30
0
10
-67.379992013031426
20
-83.305424172487861
30
0
10
-67.405870668590069
20
-83.511486649513245
30
0
0
LINE
5
120
100
AcDbEntity
8
0
100
AcDbLine
10
-67.405870668590055
20
-83.511486649513259
30
0
11
-66.116779558360577
21
-78.412572145462036
31
0
0
LINE
5
121
100
AcDbEntity
8
0
100
AcDbLine
10
-66.116779558360577
20
-78.412572145462036
30
0
11
-65.35736870020628
21
-78.412572145462036
31
0
0
LINE
5
122
100
AcDbEntity
8
0
100
AcDbLine
10
-65.35736870020628
20
-78.412572145462036
30
0
11
-64.06189750880003
21
-83.511486649513245
31
0
0
SPLINE
5
123
100
AcDbEntity
8
0
100
AcDbSpline
70
0
71
3
72
9
73
5
74
0
42
0.000000001
43
0.0000000001
44
0.0000000001
40
0
40
0
40
0
40
0
40
0.062897848374084422
40
0.10889977235769693
40
0.10889977235769693
40
0.10889977235769693
40
0.10889977235769693
10
-64.06189750880003
20
-83.511486649513245
30
0
10
-64.087744991158061
20
-83.303293584678229
30
0
10
-64.132496680088153
20
-82.942833283522276
30
0
10
-64.145675451967435
20
-82.579916218474921
30
0
10
-64.151242487132549
20
-82.426611185073853
30
0
0
LINE
5
124
100
AcDbEntity
8
0
100
AcDbLine
10
-64.151242487132563
20
-82.426611185073853
30
0
11
-64.151242487132549
21
-77.5
31
0
0
LINE
5
125
100
AcDbEntity
8
0
100
AcDbLine
10
-64.151242487132549
20
-77.5
30
0
11
-62.715376131236553
21
-77.5
31
0
0
LINE
5
126
100
AcDbEntity
8
0
100
AcDbLine
10
-62.715376131236553
20
-77.5
30
0
11
-62.715376131236553
21
-87.487236261367798
31
0
0
LINE
5
127
100
AcDbEntity
8
0
100
AcDbLine
10
-62.715376131236553
20
-87.487236261367798
30
0
11
-64.125717394053936
21
-87.487236261367798
31
0
0
LINE
5
128
100
AcDbEntity
8
0
100
AcDbLine
10
-64.125717394053936
20
-87.487236261367798
30
0
11
-65.69559883326292
21
-81.967134475708008
31
0
0
SPLINE
5
129
100
AcDbEntity
8
0
100
AcDbSpline
70
0
71
3
72
9
73
5
74
0
42
0.000000001
43
0.0000000001
44
0.0000000001
40
0
40
0
40
0
40
0
40
0.015951654116228009
40
0.045509774640539374
40
0.045509774640539374
40
0.045509774640539374
40
0.045509774640539374
10
-65.69559883326292
20
-81.967134475708008
30
0
10
-65.703845621376644
20
-81.914564302514492
30
0
10
-65.727373555585189
20
-81.76458256912062
30
0
10
-65.731323445234878
20
-81.612691010944488
30
0
10
-65.733888857066631
20
-81.514039039611816
30
0
0
SPLINE
5
130
100
AcDbEntity
8
0
100
AcDbSpline
70
0
71
3
72
9
73
5
74
0
42
0.000000001
43
0.0000000001
44
0.0000000001
40
0
40
0
40
0
40
0
40
0.019328244703905997
40
0.04549133239604819
40
0.04549133239604819
40
0.04549133239604819
40
0.04549133239604819
10
-65.733888857066631
20
-81.514039039611816
30
0
10
-65.736256316470076
20
-81.578453301017731
30
0
10
-65.74182841493564
20
-81.730059958608877
30
0
10
-65.76109705366737
20
-81.880571757416476
30
0
10
-65.772178880870342
20
-81.967134475708008
30
0
0
LINE
5
131
100
AcDbEntity
8
0
100
AcDbLine
10
-65.772178880870356
20
-81.967134475708008
30
0
11
-67.342050783336163
21
-87.487236261367798
31
0
0
LWPOLYLINE
5
132
100
AcDbEntity
8
0
100
AcDbPolyline
90
12
70
1
43
0.0
10
-59.045947305858135
20
-78.820995092391968
10
-61.69431995600462
20
-78.820995092391968
10
-61.69431995600462
20
-77.5
10
-57.552650682628155
20
-77.5
10
-57.552650682628155
20
-87.487236261367798
10
-61.656029932200909
20
-87.487236261367798
10
-61.656029932200909
20
-86.16624116897583
10
-59.045947305858135
20
-86.16624116897583
10
-59.045947305858135
20
-83.249840140342712
10
-61.292274706065655
20
-83.249840140342712
10
-61.292274706065655
20
-81.954370737075806
10
-59.045947305858135
20
-81.954370737075806
0
LINE
5
133
100
AcDbEntity
8
0
100
AcDbLine
10
-42.747286073863506
20
-81.565092802047729
30
0
11
-43.519461862742901
21
-87.487236857414246
31
0
0
LINE
5
134
100
AcDbEntity
8
0
100
AcDbLine
10
-43.519461862742901
20
-87.487236857414246
30
0
11
-45.031908266246319
21
-87.487236857414246
31
0
0
LINE
5
135
100
AcDbEntity
8
0
100
AcDbLine
10
-45.031908266246319
20
-87.487236857414246
30
0
11
-43.570516817271709
21
-77.487236261367798
31
0
0
LINE
5
136
100
AcDbEntity
8
0
100
AcDbLine
10
-43.570516817271709
20
-77.487236261367798
30
0
11
-42.1091253682971
21
-77.487236261367798
31
0
0
LINE
5
137
100
AcDbEntity
8
0
100
AcDbLine
10
-42.1091253682971
20
-77.487236261367798
30
0
11
-41.215699426829815
21
-83.147734403610229
31
0
0
SPLINE
5
138
100
AcDbEntity
8
0
100
AcDbSpline
70
0
71
3
72
9
73
5
74
0
42
0.000000001
43
0.0000000001
44
0.0000000001
40
0
40
0
40
0
40
0
40
0.038178209041317801
40
0.091400930446777467
40
0.091400930446777467
40
0.091400930446777467
40
0.091400930446777467
10
-41.215699426829815
20
-83.147734403610229
30
0
10
-41.209577385538338
20
-83.274849309539022
30
0
10
-41.194920850191977
20
-83.579170045563387
30
0
10
-41.175786434248579
20
-83.88324388860498
30
0
10
-41.164644472301006
20
-84.060305953025818
30
0
0
SPLINE
5
139
100
AcDbEntity
8
0
100
AcDbSpline
70
0
71
3
72
9
73
5
74
0
42
0.000000001
43
0.0000000001
44
0.0000000001
40
0
40
0
40
0
40
0
40
0.038151516926262154
40
0.091416312149517259
40
0.091416312149517259
40
0.091416312149517259
40
0.091416312149517259
10
-41.164644472301006
20
-84.060305953025818
30
0
10
-41.161410203385444
20
-83.933151603180818
30
0
10
-41.153660447659291
20
-83.62847219137484
30
0
10
-41.128343260448602
20
-83.324719500602797
30
0
10
-41.113591901957989
20
-83.147734403610229
30
0
0
LINE
5
140
100
AcDbEntity
8
0
100
AcDbLine
10
-41.113591901957989
20
-83.147734403610229
30
0
11
-40.226548425853252
21
-77.487236261367798
31
0
0
LINE
5
141
100
AcDbEntity
8
0
100
AcDbLine
10
-40.226548425853252
20
-77.487236261367798
30
0
11
-38.758774511516094
21
-77.487236261367798
31
0
0
LINE
5
142
100
AcDbEntity
8
0
100
AcDbLine
10
-38.758774511516094
20
-77.487236261367798
30
0
11
-37.297383062541485
21
-87.487236857414246
31
0
0
LINE
5
143
100
AcDbEntity
8
0
100
AcDbLine
10
-37.297383062541485
20
-87.487236857414246
30
0
11
-38.809827081859112
21
-87.487236857414246
31
0
0
LINE
5
144
100
AcDbEntity
8
0
100
AcDbLine
10
-38.809827081859112
20
-87.487236857414246
30
0
11
-39.582002870738506
21
-81.565092802047729
31
0
0
SPLINE
5
145
100
AcDbEntity
8
0
100
AcDbSpline
70
0
71
3
72
9
73
5
74
0
42
0.000000001
43
0.0000000001
44
0.0000000001
40
0
40
0
40
0
40
0
40
0.0381955228204904
40
0.091400144912108017
40
0.091400144912108017
40
0.091400144912108017
40
0.091400144912108017
10
-39.582002870738506
20
-81.565092802047729
30
0
10
-39.58956748067272
20
-81.437998989988841
30
0
10
-39.607669247401773
20
-81.133869291484388
30
0
10
-39.623716572425039
20
-80.829623892839606
30
0
10
-39.633057825267315
20
-80.652520656585693
30
0
0
SPLINE
5
146
100
AcDbEntity
8
0
100
AcDbSpline
70
0
71
3
72
9
73
5
74
0
42
0.000000001
43
0.0000000001
44
0.0000000001
40
0
40
0
40
0
40
0
40
0.03817052007892361
40
0.09144707825986946
40
0.09144707825986946
40
0.09144707825986946
40
0.09144707825986946
10
-39.633057825267315
20
-80.652520656585693
30
0
10
-39.638139806441529
20
-80.779667647348603
30
0
10
-39.650314970133081
20
-81.084280232945076
30
0
10
-39.675700821342133
20
-81.388093111866482
30
0
10
-39.69049047678709
20
-81.565092802047729
30
0
0
LINE
5
147
100
AcDbEntity
8
0
100
AcDbLine
10
-39.69049047678709
20
-81.565092802047729
30
0
11
-40.552008859813213
21
-87.487236857414246
31
0
0
LINE
5
148
100
AcDbEntity
8
0
100
AcDbLine
10
-40.552008859813213
20
-87.487236857414246
30
0
11
-41.777280084788799
21
-87.487236857414246
31
0
0
LINE
5
149
100
AcDbEntity
8
0
100
AcDbLine
10
-41.777280084788799
20
-87.487236857414246
30
0
11
-42.638800852000713
21
-81.565092802047729
31
0
0
SPLINE
5
150
100
AcDbEntity
8
0
100
AcDbSpline
70
0
71
3
72
9
73
5
74
0
42
0.000000001
43
0.0000000001
44
0.0000000001
40
0
40
0
40
0
40
0
40
0.038205196541825297
40
0.09143776283849539
40
0.09143776283849539
40
0.09143776283849539
40
0.09143776283849539
10
-42.638800852000713
20
-81.565092802047729
30
0
10
-42.64677062538172
20
-81.437991769706343
30
0
10
-42.665844948098282
20
-81.13379665742535
30
0
10
-42.685051799567489
20
-80.829609882654694
30
0
10
-42.696233503520489
20
-80.652520656585693
30
0
0
SPLINE
5
151
100
AcDbEntity
8
0
100
AcDbSpline
70
0
71
3
72
9
73
5
74
0
42
0.000000001
43
0.0000000001
44
0.0000000001
40
0
40
0
40
0
40
0
40
0.038163530089986783
40
0.091406387815292783
40
0.091406387815292783
40
0.091406387815292783
40
0.091406387815292783
10
-42.696233503520489
20
-80.652520656585693
30
0
10
-42.700911473450624
20
-80.779655748006078
30
0
10
-42.712115791620718
20
-81.084160059947408
30
0
10
-42.73434050801135
20
-81.388069870006916
30
0
10
-42.747286073863506
20
-81.565092802047729
30
0
0
LWPOLYLINE
5
152
100
AcDbEntity
8
0
100
AcDbPolyline
90
12
70
1
43
0.0
10
-26.486917249858379
20
-78.820995092391968
10
-29.135289900004864
20
-78.820995092391968
10
-29.135289900004864
20
-77.5
10
-24.993617050349712
20
-77.5
10
-24.993617050349712
20
-87.487236261367798
10
-29.096999876201153
20
-87.487236261367798
10
-29.096999876201153
20
-86.16624116897583
10
-26.486917249858379
20
-86.16624116897583
10
-26.486917249858379
20
-83.249840140342712
10
-28.73324703425169
20
-83.249840140342712
10
-28.73324703425169
20
-81.954370737075806
10
-26.486917249858379
20
-81.954370737075806
0
LWPOLYLINE
5
153
100
AcDbEntity
8
0
100
AcDbPolyline
90
4
70
1
43
0.0
10
-32.000000476837158
20
-30.000000149011612
10
-32.000000476837158
20
-10.000000149011612
10
-21.000000476837158
20
-10.000000149011612
10
-21.000000476837158
20
-30.000000149011612
0
LWPOLYLINE
5
154
100
AcDbEntity
8
0
100
AcDbPolyline
90
4
70
1
43
0.0
10
-64.183313119214276
20
-12.396735377972494
10
-64.18331311921429
20
4.1658075946338391
10
-36.183313119214297
20
4.1658075946338657
10
-36.183313119214276
20
-12.396735377972467
0
LWPOLYLINE
5
155
100
AcDbEntity
8
0
100
AcDbPolyline
90
3
70
1
43
0.0
10
-2.0000000298023122
20
-46.607963906236691
10
-1.9999880659778626
20
-50.530632491520763
10
-2.0000000298023135
20
-50.530632491511454
0
LWPOLYLINE
5
156
100
AcDbEntity
8
0
100
AcDbPolyline
90
10
70
1
43
0.0
10
-100
20
10
10
-100
20
-70
10
-93.301270934279984
20
-95.000001043081284
10
-75.00000074505806
20
-113.30127123230324
10
-58.682409628404585
20
-119.24038869369168
10
-41.317591861711549
20
-119.24038869369167
10
-25.000000745058063
20
-113.30127123230321
10
-6.6987305558361321
20
-95.000001043081284
10
0
20
-70
10
0
20
10
0
LWPOLYLINE
5
157
100
AcDbEntity
8
0
100
AcDbPolyline
90
4
70
1
43
0.0
10
-98.000000089406782
20
-15.02228879556194
10
-94.00000002980218
20
-15.022288795561934
10
-94.000000029802123
20
-45.022288795561948
10
-98.000000089406768
20
-45.022288795561948
0
LWPOLYLINE
5
158
100
AcDbEntity
8
0
100
AcDbPolyline
90
4
70
1
43
0.0
10
-70.000001043081269
20
9.5000000819563635
10
-30.000000447034818
20
9.5000000819563724
10
-30.000000447034818
20
5.5000000819563741
10
-70.000001043081269
20
5.5000000819563866
0
LWPOLYLINE
5
159
100
AcDbEntity
8
0
100
AcDbPolyline
90
4
70
1
43
0.0
10
-6.0000000894069636
20
-15.000000223517386
10
-2.0000000298023224
20
-15.000000223517384
10
-2.0000000298023171
20
-44.999999999999986
10
-6.0000000894069583
20
-44.999999999999986
0
LWPOLYLINE
5
160
100
AcDbEntity
8
0
100
AcDbPolyline
90
4
70
1
43
0.0
10
-6.7764572427025884
20
-72.897778589080829
10
-2.9127539878955822
20
-73.933054755999876
10
-7.5714971198246097
20
-91.319719615389204
10
-11.435200054547966
20
-90.284443462284088
0
LWPOLYLINE
5
161
100
AcDbEntity
8
0
100
AcDbPolyline
90
4
70
1
43
0.0
10
-23.547469284638893
20
-110.2064495219231
10
-26.375896409385085
20
-107.37802239717692
10
-14.355081129213783
20
-95.357207117005601
10
-11.526654004467595
20
-98.185634241751785
0
LWPOLYLINE
5
162
100
AcDbEntity
8
0
100
AcDbPolyline
90
8
70
1
43
0.0
10
-46.922765456511264
20
-114.48910896768058
10
-37.263649720436888
20
-111.9009567066007
10
-37.263678013255998
20
-111.90085113347325
10
-28.570365821709135
20
-109.5714041556808
10
-33.040958128900471
20
-110.76948990476279
10
-31.467952235886273
20
-110.34800424604023
10
-30.432676055476165
20
-114.21170755119654
10
-45.887489276101149
20
-118.35281227283693
0
LWPOLYLINE
5
163
100
AcDbEntity
8
0
100
AcDbPolyline
90
4
70
1
43
0.0
10
-54.101966194102708
20
-118.36754044435654
10
-69.556779414727615
20
-114.22643572271585
10
-68.521503234317422
20
-110.36273241755951
10
-53.066690013692515
20
-114.50383713920027
0
LWPOLYLINE
5
164
100
AcDbEntity
8
0
100
AcDbPolyline
90
4
70
1
43
0.0
10
-76.471014677851969
20
-110.20644335621158
10
-88.491829958022464
20
-98.18562807603945
10
-85.663402833276081
20
-95.357200951293478
10
-73.642587553105599
20
-107.37801623146559
0
LWPOLYLINE
5
165
100
AcDbEntity
8
0
100
AcDbPolyline
90
4
70
1
43
0.0
10
-93.299931512036494
20
-72.840255365837862
10
-88.641189002287518
20
-90.226920319987642
10
-92.50489195499901
20
-91.262196405960253
10
-97.163634784831601
20
-73.875531465624377
0
LWPOLYLINE
5
166
100
AcDbEntity
8
0
100
AcDbPolyline
90
14
70
1
43
0.0
10
-48.209954015910625
20
-85.183471441268921
10
-47.476068250834942
20
-80.678046941757202
10
-47.476068250834942
20
-79.395341873168945
10
-47.278238050639629
20
-79.395341873168945
10
-46.978300325572491
20
-77.5
10
-45.504146330058575
20
-77.5
10
-45.504146330058575
20
-77.525526285171509
10
-47.437778227031231
20
-87.5
10
-49.007657282054424
20
-87.5
10
-50.928524248301983
20
-77.5
10
-49.447987787425518
20
-77.5
10
-49.14805244654417
20
-79.395341873168945
10
-48.937459699809551
20
-79.395341873168945
10
-48.937459699809551
20
-80.678046941757202
0
LWPOLYLINE
5
167
100
AcDbEntity
8
0
100
AcDbPolyline
90
14
70
1
43
0.0
10
-72.287805788218975
20
-85.183471441268921
10
-71.553924791514874
20
-80.678046941757202
10
-71.553924791514874
20
-79.395341873168945
10
-71.356094591319561
20
-79.395341873168945
10
-71.056154482066631
20
-77.5
10
-69.582002870738506
20
-77.5
10
-69.582002870738506
20
-77.525526285171509
10
-71.515634767711163
20
-87.5
10
-73.085506670176983
20
-87.5
10
-75.006378404796124
20
-77.5
10
-73.525846712291241
20
-77.5
10
-73.225906603038311
20
-79.395341873168945
10
-73.015316240489483
20
-79.395341873168945
10
-73.015316240489483
20
-80.678046941757202
0
ENDSEC
0
SECTION
2
OBJECTS
0
DICTIONARY
5
C
100
AcDbDictionary
3
ACAD_GROUP
350
D
3
ACAD_MLINESTYLE
350
17
0
DICTIONARY
5
D
100
AcDbDictionary
0
DICTIONARY
5
1A
330
C
100
AcDbDictionary
0
DICTIONARY
5
17
100
AcDbDictionary
0
ENDSEC
0
EOF
